<?xml version="1.0" encoding="UTF-8"?>
<svg version="1.1" xmlns="http://www.w3.org/2000/svg" width="225" height="225">
<path d="M0 0 C1.19831451 -0.00686325 2.39662903 -0.0137265 3.6312561 -0.02079773 C6.88568791 -0.03585327 10.1397559 -0.03758981 13.39420724 -0.03185534 C16.12731988 -0.02873996 18.86038204 -0.03488202 21.59348744 -0.04089409 C28.05081264 -0.05488828 34.50800542 -0.05342182 40.96533203 -0.04199219 C47.58931816 -0.03052539 54.2128987 -0.04457379 60.83683139 -0.07138866 C66.5578478 -0.09366669 72.27873803 -0.10015575 77.99979466 -0.09431225 C81.40172403 -0.09096903 84.80339384 -0.09317882 88.20528603 -0.11056328 C110.41711569 -0.19825254 128.46241829 1.28064159 145.47143555 17.24389648 C157.26148062 29.80631446 163.0477476 45.01827461 162.84790039 62.1184082 C162.31949856 78.16816446 155.6994928 92.49572441 144.38549805 103.77905273 C130.93545912 116.00967 114.76024822 120.72171604 96.93725586 120.67871094 C95.82686951 120.68382187 94.71648315 120.6889328 93.57244873 120.69419861 C89.92804463 120.70801605 86.28383136 120.70714347 82.6394043 120.70483398 C80.08648611 120.70872571 77.53356857 120.71306136 74.98065186 120.71781921 C69.63803744 120.72526496 64.29549198 120.7251423 58.95288086 120.71972656 C52.81237866 120.71369681 46.67210618 120.72598175 40.53164315 120.74729663 C34.58467989 120.76716678 28.63778655 120.77007086 22.69078827 120.76656151 C20.17921154 120.76707188 17.66763092 120.77225581 15.15607452 120.78237343 C-16.34314597 120.89368678 -16.34314597 120.89368678 -29.7512207 113.77905273 C-30.41887451 113.43277832 -31.08652832 113.08650391 -31.77441406 112.72973633 C-46.7514945 104.63744217 -56.1366116 90.8946627 -61.31762695 74.88061523 C-65.01418218 59.31889321 -62.36132937 42.69115131 -54.26293945 28.96264648 C-51.09542706 24.36237903 -47.44109661 20.35068658 -43.5012207 16.40405273 C-42.86313477 15.75436523 -42.22504883 15.10467773 -41.56762695 14.43530273 C-30.08450457 3.54901623 -15.3935801 -0.0625815 0 0 Z M-41.5012207 21.40405273 C-53.16108408 34.87495946 -57.4310373 48.66020948 -56.68041992 66.19702148 C-55.56304749 79.95866563 -48.4461327 92.11208951 -38.5012207 101.40405273 C-28.67024146 109.24377131 -17.19949358 114.50030417 -4.46299744 114.54449463 C-3.4721817 114.55020477 -2.48136597 114.55591492 -1.46052551 114.5617981 C-0.38461655 114.56291595 0.69129242 114.56403381 1.79980469 114.56518555 C3.51299896 114.5726329 3.51299896 114.5726329 5.26080322 114.58023071 C9.03935348 114.59483445 12.8178617 114.60165244 16.59643555 114.60717773 C19.22855124 114.61293194 21.86066692 114.61868964 24.49278259 114.62445068 C29.30944976 114.63401559 34.12610792 114.63991587 38.94278342 114.64294744 C46.00507104 114.64741805 53.06716415 114.66492276 60.12939268 114.69394803 C66.26803502 114.71829063 72.40659797 114.72589772 78.54528618 114.72762299 C81.1450449 114.73063898 83.74480302 114.73863168 86.34453011 114.75180817 C89.99383123 114.76897961 93.64266637 114.76696081 97.29199219 114.76049805 C98.35373154 114.76971283 99.41547089 114.77892761 100.50938416 114.78842163 C116.60982625 114.6996923 130.39115962 109.28963606 142.0222168 98.11108398 C154.1924508 84.80828877 157.35607285 70.19141991 156.67797852 52.76000977 C155.66918133 39.49721297 148.07604779 27.30313814 138.4987793 18.40405273 C125.29560148 8.38784887 111.43199309 5.08873157 95.09912109 5.12939453 C94.01784943 5.1242836 92.93657776 5.11917267 91.82254028 5.11390686 C88.28096843 5.1001123 84.73959342 5.1009601 81.19799805 5.10327148 C78.71376983 5.09937881 76.22954227 5.09504296 73.74531555 5.09028625 C68.54991494 5.08284566 63.35458231 5.08309951 58.15917969 5.08837891 C51.53227646 5.09416846 44.90565319 5.07724404 38.2787962 5.05403423 C33.15094908 5.03923489 28.02316842 5.03843366 22.89530373 5.04154396 C20.45350401 5.0410338 18.01170028 5.03585393 15.56992149 5.02573204 C-4.47841542 4.95281996 -26.93996945 5.14802401 -41.5012207 21.40405273 Z " fill="#313438" transform="translate(62.501220703125,52.595947265625)"/>
<path d="M0 0 C1.5859375 1.16796875 1.5859375 1.16796875 4.5859375 4.16796875 C2.2759375 6.47796875 -0.0340625 8.78796875 -2.4140625 11.16796875 C-3.1978125 10.83796875 -3.9815625 10.50796875 -4.7890625 10.16796875 C-10.39483004 8.62155012 -15.88684957 8.14632948 -21.3515625 10.35546875 C-24.55704241 13.17240564 -26.00289325 15.87572255 -27.2890625 19.91796875 C-27.46401029 24.46661117 -26.52369799 28.13281142 -24.4140625 32.16796875 C-20.39100869 35.8252904 -16.8312788 37.07456847 -11.4140625 37.16796875 C-8.46041567 36.60121733 -5.96017248 35.78509265 -3.4140625 34.16796875 C-1.35975351 31.14998147 -1.35975351 31.14998147 -0.4140625 28.16796875 C-4.7040625 28.16796875 -8.9940625 28.16796875 -13.4140625 28.16796875 C-13.4140625 24.53796875 -13.4140625 20.90796875 -13.4140625 17.16796875 C-9.43485156 17.14114261 -5.45581909 17.12121482 -1.4765625 17.10546875 C-0.34025391 17.09708984 0.79605469 17.08871094 1.96679688 17.08007812 C3.04638672 17.07685547 4.12597656 17.07363281 5.23828125 17.0703125 C6.73862915 17.06245728 6.73862915 17.06245728 8.26928711 17.05444336 C10.5859375 17.16796875 10.5859375 17.16796875 11.5859375 18.16796875 C12.42621435 25.75801043 11.60153559 32.59088887 7.5859375 39.16796875 C1.76045469 45.73531889 -4.05797695 48.48583005 -12.7265625 49.1953125 C-19.27298646 49.12870644 -25.64672251 46.84766036 -30.8125 42.8203125 C-36.3161633 37.1421428 -38.95203764 30.78821734 -39.7265625 23.04296875 C-39.08234919 15.05472369 -36.48035882 7.97165114 -30.37890625 2.60546875 C-21.42106664 -3.94817931 -9.92227884 -5.65439908 0 0 Z " fill="#4481E2" transform="translate(73.4140625,89.83203125)"/>
<path d="M0 0 C20 0 20 0 27 4 C30.21334048 7.62796506 30.52312153 11.09847541 30.3515625 15.78515625 C29.64394301 20.24315906 27.32943298 22.9958033 23.8125 25.65234375 C20.24918301 27.35976647 17.61920655 27.29773476 13.6875 27.1875 C10.3771875 27.0946875 10.3771875 27.0946875 7 27 C7 32.94 7 38.88 7 45 C4.69 45 2.38 45 0 45 C0 30.15 0 15.3 0 0 Z M7 6 C7 10.95 7 15.9 7 21 C8.7325 21.04125 10.465 21.0825 12.25 21.125 C13.22453125 21.14820313 14.1990625 21.17140625 15.203125 21.1953125 C18.05069951 20.99645953 19.63037132 20.55438946 22 19 C23.56430248 15.87139505 23.35627284 13.44397075 23 10 C21.28904021 7.31055892 21.28904021 7.31055892 18 6 C14.26404083 5.67992485 10.76377201 5.8186134 7 6 Z " fill="#383B3D" transform="translate(101,90)"/>
<path d="M0 0 C1.5859375 1.16796875 1.5859375 1.16796875 4.5859375 4.16796875 C2.2759375 6.47796875 -0.0340625 8.78796875 -2.4140625 11.16796875 C-3.1978125 10.83796875 -3.9815625 10.50796875 -4.7890625 10.16796875 C-10.39483004 8.62155012 -15.88684957 8.14632948 -21.3515625 10.35546875 C-23.90566122 12.59997975 -25.09147267 13.99375316 -26.4140625 17.16796875 C-26.49979996 18.97951825 -26.55974077 20.79237376 -26.6015625 22.60546875 C-26.79696602 26.04829264 -26.92358963 27.62114368 -29.25 30.21484375 C-31.24924284 31.68797006 -33.2300635 32.98890779 -35.4140625 34.16796875 C-39.11176026 30.71810596 -39.23125677 27.99602607 -39.7265625 23.04296875 C-39.08234919 15.05472369 -36.48035882 7.97165114 -30.37890625 2.60546875 C-21.42106664 -3.94817931 -9.92227884 -5.65439908 0 0 Z " fill="#E14034" transform="translate(73.4140625,89.83203125)"/>
<path d="M0 0 C3.70756388 2.47170925 5.22452944 4.54858832 6.625 8.75 C6.70678114 10.45016844 6.73249501 12.15336297 6.72265625 13.85546875 C6.71943359 14.83837891 6.71621094 15.82128906 6.71289062 16.83398438 C6.70451172 17.85814453 6.69613281 18.88230469 6.6875 19.9375 C6.68298828 20.97326172 6.67847656 22.00902344 6.67382812 23.07617188 C6.6620401 25.63417266 6.64558515 28.19205733 6.625 30.75 C3.29166667 30.75 -0.04166667 30.75 -3.375 30.75 C-3.705 31.08 -4.035 31.41 -4.375 31.75 C-8.45596316 32.28798008 -12.62479978 32.68436984 -16.3359375 30.703125 C-19.84115545 27.7963589 -21.26219552 25.94572747 -21.6875 21.4375 C-21.3225203 17.13073959 -20.43516472 15.72516014 -17.375 12.75 C-13.95081574 10.54109542 -11.14639231 10.53757843 -7.125 10.625 C-6.04734375 10.64304687 -4.9696875 10.66109375 -3.859375 10.6796875 C-2.62960938 10.71449219 -2.62960938 10.71449219 -1.375 10.75 C-1.72286708 8.77463255 -1.72286708 8.77463255 -2.375 6.75 C-5.19501327 5.33999336 -7.24507255 5.50451549 -10.375 5.75 C-13.19280534 7.13885248 -13.19280534 7.13885248 -15.375 8.75 C-17.025 7.76 -18.675 6.77 -20.375 5.75 C-14.90892144 -1.66824948 -8.66987741 -3.21106571 0 0 Z M-12.4375 16.875 C-14.61071686 18.60834231 -14.61071686 18.60834231 -14.8125 21.3125 C-14.58357238 23.92213728 -14.58357238 23.92213728 -12.375 25.75 C-8.27649228 26.21398201 -6.04396723 26.13430032 -2.4375 24.0625 C-0.12627416 21.91888381 -0.12627416 21.91888381 -0.0625 19 C-0.165625 18.2575 -0.26875 17.515 -0.375 16.75 C-6.47308239 15.64035004 -6.47308239 15.64035004 -12.4375 16.875 Z " fill="#3B3F43" transform="translate(153.375,104.25)"/>
<path d="M0 0 C2.31 0 4.62 0 7 0 C9.64 6.27 12.28 12.54 15 19 C17.2483319 15.62750215 18.61176439 12.13067565 20.0625 8.375 C22.87044765 1.12955235 22.87044765 1.12955235 24 0 C26.33297433 -0.04092937 28.66705225 -0.04241723 31 0 C29.38067613 5.20967995 27.27852046 10.13133483 25.0859375 15.1171875 C24.71143463 15.97434357 24.33693176 16.83149963 23.95108032 17.71463013 C22.76148967 20.4358269 21.56830099 23.15542855 20.375 25.875 C19.56486564 27.72645815 18.75496723 29.57801956 17.9453125 31.4296875 C15.96627159 35.95432518 13.9840036 40.47753634 12 45 C9.69 45 7.38 45 5 45 C6.38166823 40.50957824 8.1828517 36.42904662 10.29296875 32.24609375 C11.70919092 27.74704541 9.5593691 23.67339419 7.71484375 19.55078125 C7.26689453 18.53822266 6.81894531 17.52566406 6.35742188 16.48242188 C5.88884766 15.43634766 5.42027344 14.39027344 4.9375 13.3125 C4.00582848 11.22672515 3.07727605 9.13955333 2.15234375 7.05078125 C1.73976318 6.12950439 1.32718262 5.20822754 0.90209961 4.2590332 C0 2 0 2 0 0 Z " fill="#36393C" transform="translate(160,104)"/>
<path d="M0 0 C0.5775 0.928125 1.155 1.85625 1.75 2.8125 C3.8923986 5.84756468 5.34789877 7.30371979 8.8125 8.6328125 C11.6714894 9.11271429 14.13297741 8.70671561 17 8.3125 C22.35754639 7.65290258 22.35754639 7.65290258 25.328125 9.2578125 C27.0385702 10.75271379 28.55743643 12.24759003 30 14 C25.27170904 19.25365662 20.56198896 20.46469956 13.6875 21.02734375 C6.39846479 20.95318205 -0.81640005 18.18359995 -6 13 C-7.59531311 10.72301008 -8.76975857 8.50969252 -10 6 C-8.90398831 4.99106869 -7.79786082 3.99311775 -6.6875 3 C-6.07261719 2.443125 -5.45773438 1.88625 -4.82421875 1.3125 C-3 0 -3 0 0 0 Z " fill="#34A454" transform="translate(47,118)"/>
<path d="M0 0 C19 0 19 0 26 6 C25.67 7.32 25.34 8.64 25 10 C24.46826172 9.3503125 24.46826172 9.3503125 23.92578125 8.6875 C20.95433726 5.57935519 19.00510133 4.11920969 14.640625 3.6015625 C11.424409 3.62262942 8.21014965 3.80143404 5 4 C5 8.95 5 13.9 5 19 C7.97 19 10.94 19 14 19 C14 19.33 14 19.66 14 20 C10.92382812 20.29296875 10.92382812 20.29296875 7.84765625 20.5859375 C7.23792969 20.72257812 6.62820312 20.85921875 6 21 C5.67 21.66 5.34 22.32 5 23 C4.34 23 3.68 23 3 23 C3 29.27 3 35.54 3 42 C2.01 42 1.02 42 0 42 C0 28.14 0 14.28 0 0 Z " fill="#3A3D41" transform="translate(103,92)"/>
<path d="M0 0 C4.13703632 0.63646713 6.9752987 2.11278512 10 5 C11.02736977 8.86774503 11.05882576 12.13807237 10 16 C7.66501001 18.65339772 5.11123836 20.35409935 2 22 C-1.76716533 18.48532565 -1.90502633 15.709526 -2.1875 10.625 C-1.98479941 6.70612192 -1.21187233 3.71135901 0 0 Z " fill="#F4B718" transform="translate(36,102)"/>
<path d="M0 0 C20 0 20 0 27 4 C28.9375 7.25 28.9375 7.25 30 10 C29.01 10.495 29.01 10.495 28 11 C28 10.01 28 9.02 28 8 C27.01 7.67 26.02 7.34 25 7 C23.68 5.68 22.36 4.36 21 3 C14.73 2.67 8.46 2.34 2 2 C2 15.86 2 29.72 2 44 C2.99 44 3.98 44 5 44 C5 38.39 5 32.78 5 27 C7.45391569 30.68087353 7.22802759 33.44355588 7.125 37.6875 C7.11597656 38.38939453 7.10695313 39.09128906 7.09765625 39.81445312 C7.07413704 41.54311525 7.03826713 43.27160145 7 45 C4.69 45 2.38 45 0 45 C0 30.15 0 15.3 0 0 Z " fill="#2D2F33" transform="translate(101,90)"/>
<path d="M0 0 C2.0625 1.5625 2.0625 1.5625 4 4 C3.75 7.75 3.75 7.75 3 11 C-0.67664712 12.00960562 -4.28722992 12.37166101 -8.07421875 12.71875 C-10.00386502 12.80469862 -10.00386502 12.80469862 -11 14 C-11.16666667 16.5 -11.16666667 16.5 -11 19 C-9.84354174 20.37375369 -9.84354174 20.37375369 -6.6875 20.25 C-2.87883379 19.99178534 -1.59688249 19.69676259 1 17 C1.33 16.01 1.66 15.02 2 14 C2.66 14.33 3.32 14.66 4 15 C1.78941423 19.42117155 -0.45791381 21.94320625 -5 24 C-8.10999946 23.69241764 -10.45334718 22.80962154 -13 21 C-14.375 18.25 -14.375 18.25 -14 15 C-12.25701961 12.39338068 -10.23623555 10.19086265 -8 8 C-12.81122847 9.52555966 -12.81122847 9.52555966 -16 13 C-16.47707476 17.21416041 -16.43171409 19.32364792 -14.125 22.9375 C-9.75340728 25.82275119 -6.09210661 25.44494135 -1 25 C-1.33 25.66 -1.66 26.32 -2 27 C-11.68122385 27.86097841 -11.68122385 27.86097841 -15.5625 24.625 C-18.41576286 21.55225538 -18.92120729 20.83520274 -19.3125 16.6875 C-18.9475203 12.38073959 -18.06016472 10.97516014 -15 8 C-11.57581574 5.79109542 -8.77139231 5.78757843 -4.75 5.875 C-3.67234375 5.89304687 -2.5946875 5.91109375 -1.484375 5.9296875 C-0.25460938 5.96449219 -0.25460938 5.96449219 1 6 C0.67 4.02 0.34 2.04 0 0 Z " fill="#323336" transform="translate(151,109)"/>
<path d="M0 0 C1.91635217 -0.05423638 3.83314925 -0.09289963 5.75 -0.125 C7.35101563 -0.15980469 7.35101563 -0.15980469 8.984375 -0.1953125 C11.92470106 -0.00487687 13.52361878 0.47329896 16 2 C16 2.99 16 3.98 16 5 C16.99 5 17.98 5 19 5 C19 4.34 19 3.68 19 3 C19.66 3 20.32 3 21 3 C20.52797514 7.24822374 18.03344482 9.19989709 15 12 C14.34 11.01 13.68 10.02 13 9 C9.88389446 8.41407366 9.88389446 8.41407366 6.375 8.3125 C5.18648438 8.24675781 3.99796875 8.18101563 2.7734375 8.11328125 C1.85820313 8.07589844 0.94296875 8.03851563 0 8 C0 5.36 0 2.72 0 0 Z " fill="#3F85F3" transform="translate(61,109)"/>
<path d="M0 0 C2.31 0 4.62 0 7 0 C5.38067613 5.20967995 3.27852046 10.13133483 1.0859375 15.1171875 C0.71143463 15.97434357 0.33693176 16.83149963 -0.04891968 17.71463013 C-1.23851033 20.4358269 -2.43169901 23.15542855 -3.625 25.875 C-4.43513436 27.72645815 -5.24503277 29.57801956 -6.0546875 31.4296875 C-8.03372841 35.95432518 -10.0159964 40.47753634 -12 45 C-14.31 45 -16.62 45 -19 45 C-17.50829734 40.0276578 -15.39542583 35.58154261 -13 31 C-12.34 31.33 -11.68 31.66 -11 32 C-12.65 35.63 -14.3 39.26 -16 43 C-12.92541756 42.35929249 -12.92541756 42.35929249 -12.05395508 40.20703125 C-11.77447021 39.41683594 -11.49498535 38.62664062 -11.20703125 37.8125 C-9.60395984 33.5233866 -7.84817838 29.35483946 -5.94921875 25.1875 C-5.41619141 24.01058594 -4.88316406 22.83367187 -4.33398438 21.62109375 C-3.50232514 19.79203537 -2.67051853 17.96303321 -1.83178711 16.13720703 C-1.00972193 14.34468434 -0.19803697 12.54741245 0.61328125 10.75 C1.09579346 9.69296875 1.57830566 8.6359375 2.07543945 7.546875 C2.38054443 6.70640625 2.68564941 5.8659375 3 5 C2.67 4.34 2.34 3.68 2 3 C1.7525 3.53625 1.505 4.0725 1.25 4.625 C-0.29696975 7.56424252 -2.13014369 10.25754408 -4 13 C-4.33 12.34 -4.66 11.68 -5 11 C-4.00390625 8.3984375 -4.00390625 8.3984375 -2.5625 5.375 C-2.08941406 4.37210937 -1.61632812 3.36921875 -1.12890625 2.3359375 C-0.75636719 1.56507812 -0.38382813 0.79421875 0 0 Z " fill="#2D2F33" transform="translate(184,104)"/>
<path d="M0 0 C2.5625 1.625 2.5625 1.625 4.5625 3.625 C4.2325 4.615 3.9025 5.605 3.5625 6.625 C3.15 5.985625 2.7375 5.34625 2.3125 4.6875 C0.38439513 2.41509069 -0.55174181 2.02303561 -3.4375 1.625 C-3.7675 2.945 -4.0975 4.265 -4.4375 5.625 C-5.324375 5.563125 -6.21125 5.50125 -7.125 5.4375 C-10.78235017 5.64451982 -12.48527151 6.541074 -15.4375 8.625 C-17.0875 7.635 -18.7375 6.645 -20.4375 5.625 C-14.97774081 -1.78467318 -8.62053005 -3.44821202 0 0 Z " fill="#313336" transform="translate(153.4375,104.375)"/>
<path d="M0 0 C0.33 0.66 0.66 1.32 1 2 C-0.28913487 2.67154933 -1.58140204 3.33708859 -2.875 4 C-3.59429687 4.37125 -4.31359375 4.7425 -5.0546875 5.125 C-7 6 -7 6 -9 6 C-9 6.66 -9 7.32 -9 8 C-7.68 7.67 -6.36 7.34 -5 7 C-5 7.66 -5 8.32 -5 9 C-7.08203125 10.40234375 -7.08203125 10.40234375 -9.8125 11.9375 C-12.95238417 13.70906524 -15.58153646 15.30835453 -18 18 C-18.66 17.67 -19.32 17.34 -20 17 C-19.525625 16.566875 -19.05125 16.13375 -18.5625 15.6875 C-16.76313043 13.97690387 -16.76313043 13.97690387 -16 11 C-16.50789063 11.44730469 -17.01578125 11.89460938 -17.5390625 12.35546875 C-21.64642275 15.96286942 -25.78321121 19.52114925 -30 23 C-25.76363086 13.09236249 -15.34573388 6.49412339 -6 2 C-4.01234341 1.29738651 -2.01495907 0.61998741 0 0 Z " fill="#2F3134" transform="translate(42,55)"/>
<path d="M0 0 C0.33 0 0.66 0 1 0 C1.89929341 14.22882021 1.89929341 14.22882021 -2.515625 20.7421875 C-4 22 -4 22 -8 22 C-9.921875 20.90625 -9.921875 20.90625 -11.75 19.5 C-12.67039062 18.80390625 -12.67039062 18.80390625 -13.609375 18.09375 C-14.06828125 17.7328125 -14.5271875 17.371875 -15 17 C-13.1875 15 -13.1875 15 -11 13 C-8 13 -8 13 -6.4375 14.4375 C-5.963125 14.953125 -5.48875 15.46875 -5 16 C-4.34 16.33 -3.68 16.66 -3 17 C-0.84940691 13.46813168 -0.6202272 10.33712007 -0.375 6.25 C-0.30023438 5.07953125 -0.22546875 3.9090625 -0.1484375 2.703125 C-0.09945312 1.81109375 -0.05046875 0.9190625 0 0 Z " fill="#4085DA" transform="translate(83,109)"/>
<path d="M0 0 C4.57606098 2.17907666 4.57606098 2.17907666 6.625 4.25 C6.796875 7.38671875 6.796875 7.38671875 6.375 10.9375 C6.24609375 12.11699219 6.1171875 13.29648438 5.984375 14.51171875 C5.86578125 15.41535156 5.7471875 16.31898437 5.625 17.25 C3.975 17.25 2.325 17.25 0.625 17.25 C0.78548828 16.21939453 0.78548828 16.21939453 0.94921875 15.16796875 C1.06910156 14.26691406 1.18898437 13.36585937 1.3125 12.4375 C1.50392578 11.09751953 1.50392578 11.09751953 1.69921875 9.73046875 C1.87540733 7.20800353 1.87540733 7.20800353 0.25 5.5625 C-0.28625 5.129375 -0.8225 4.69625 -1.375 4.25 C-2.39300576 2.93036291 -3.39748365 1.59990354 -4.375 0.25 C-2.375 -0.75 -2.375 -0.75 0 0 Z " fill="#3B3E40" transform="translate(152.375,105.75)"/>
<path d="M0 0 C3.23490776 0.55774272 4.97855006 1.37211508 7 4 C7 4.99 7 5.98 7 7 C6.34 7 5.68 7 5 7 C5 7.99 5 8.98 5 10 C5.66 10.33 6.32 10.66 7 11 C6.34 12.32 5.68 13.64 5 15 C4.01 14.67 3.02 14.34 2 14 C2 14.99 2 15.98 2 17 C1.34 17 0.68 17 0 17 C-0.125 11.25 -0.125 11.25 1 9 C1.66 9 2.32 9 3 9 C2.505 8.62875 2.01 8.2575 1.5 7.875 C-0.59755514 5.25305607 -0.21743835 3.26157528 0 0 Z " fill="#F8BB04" transform="translate(37,104)"/>
<path d="M0 0 C3.87157659 0.57076529 6.54351942 1.67112798 9.8125 3.8125 C10.60269531 4.31394531 11.39289062 4.81539062 12.20703125 5.33203125 C12.79871094 5.88246094 13.39039063 6.43289062 14 7 C14 8.32 14 9.64 14 11 C9.7170548 10.4520917 7.14864359 8.97567196 3.6875 6.4375 C2.80449219 5.79683594 1.92148437 5.15617188 1.01171875 4.49609375 C0.01591797 3.75552734 0.01591797 3.75552734 -1 3 C-0.67 2.01 -0.34 1.02 0 0 Z " fill="#3A3E41" transform="translate(22,154)"/>
<path d="M0 0 C0.66 0 1.32 0 2 0 C2 7.26 2 14.52 2 22 C-0.31 22 -2.62 22 -5 22 C-4.34 20.68 -3.68 19.36 -3 18 C-2.01 18.66 -1.02 19.32 0 20 C-0.12568359 19.09121094 -0.12568359 19.09121094 -0.25390625 18.1640625 C-1.01157955 11.93004164 -0.85947067 6.21463404 0 0 Z " fill="#303235" transform="translate(158,113)"/>
<path d="M0 0 C1.40113616 1.95309888 2.73339467 3.95708818 4 6 C4.66 6.66 5.32 7.32 6 8 C3.03 8 0.06 8 -3 8 C-2.34 7.67 -1.68 7.34 -1 7 C-1 6.34 -1 5.68 -1 5 C-1.99 4.67 -2.98 4.34 -4 4 C-4.33 5.32 -4.66 6.64 -5 8 C-6.32 8.33 -7.64 8.66 -9 9 C-9.33 8.01 -9.66 7.02 -10 6 C-8.90398831 4.99106869 -7.79786082 3.99311775 -6.6875 3 C-6.07261719 2.443125 -5.45773438 1.88625 -4.82421875 1.3125 C-3 0 -3 0 0 0 Z " fill="#3C9C50" transform="translate(47,118)"/>
<path d="M0 0 C4 0 4 0 6.140625 2.04296875 C8.30199811 5.48027851 9.005884 8.33147942 9.75 12.3125 C10.11351562 14.19388672 10.11351562 14.19388672 10.484375 16.11328125 C10.65453125 17.06589844 10.8246875 18.01851562 11 19 C7.78337782 16.09819616 6.06752137 13.47469534 4.375 9.5 C2.98935447 6.28742055 1.60014377 3.11220624 0 0 Z " fill="#3A3E41" transform="translate(211,81)"/>
<path d="M0 0 C-0.477976 4.30178403 -2.96651909 6.09840957 -6 9 C-8.37005509 11.63503019 -10.68755214 14.31436171 -13 17 C-13.66 16.34 -14.32 15.68 -15 15 C-3.73333333 0 -3.73333333 0 0 0 Z " fill="#3B3E42" transform="translate(26,66)"/>
<path d="M0 0 C0 0.66 0 1.32 0 2 C-1.98 2.99 -1.98 2.99 -4 4 C-4.042721 5.66611905 -4.04063832 7.33382885 -4 9 C-2.84354174 10.37375369 -2.84354174 10.37375369 0.3125 10.25 C4.12116621 9.99178534 5.40311751 9.69676259 8 7 C8.33 6.01 8.66 5.02 9 4 C9.66 4.33 10.32 4.66 11 5 C8.78941423 9.42117155 6.54208619 11.94320625 2 14 C-1.1070264 13.69271167 -3.46213365 12.81960229 -6 11 C-7.3125 8.125 -7.3125 8.125 -7 5 C-2.97826087 0 -2.97826087 0 0 0 Z " fill="#2C3033" transform="translate(144,119)"/>
<path d="M0 0 C4.13703632 0.63646713 6.9752987 2.11278512 10 5 C10.52463302 8.71525836 10.34701096 12.2728452 10 16 C9.01 16.33 8.02 16.66 7 17 C6.67 14.36 6.34 11.72 6 9 C6.66 9 7.32 9 8 9 C7.2575 8.071875 7.2575 8.071875 6.5 7.125 C5 5 5 5 5 3 C3.35 2.67 1.7 2.34 0 2 C0 1.34 0 0.68 0 0 Z " fill="#F3B120" transform="translate(36,102)"/>
<path d="M0 0 C3 1 3 1 4.16796875 2.9609375 C4.50441406 3.75757812 4.84085938 4.55421875 5.1875 5.375 C5.70376953 6.56222656 5.70376953 6.56222656 6.23046875 7.7734375 C7 10 7 10 7 13 C4 12 4 12 2.83203125 10.15234375 C2.49558594 9.42144531 2.15914062 8.69054687 1.8125 7.9375 C1.46832031 7.20402344 1.12414062 6.47054687 0.76953125 5.71484375 C0.51558594 5.14894531 0.26164063 4.58304687 0 4 C-0.66 4 -1.32 4 -2 4 C-2 3.01 -2 2.02 -2 1 C-1.34 0.67 -0.68 0.34 0 0 Z " fill="#3B3F42" transform="translate(163,105)"/>
<path d="M0 0 C6.45092862 2.72923903 10.47183874 7.16496407 14 13 C13.01 13.495 13.01 13.495 12 14 C9.46276571 11.53324444 7.09436553 9.12296115 4.9375 6.3125 C3.03785633 4.04518336 1.71734277 3.06752752 -1 2 C-0.67 1.34 -0.34 0.68 0 0 Z " fill="#3B3F43" transform="translate(199,66)"/>
<path d="M0 0 C0.33 0 0.66 0 1 0 C1.33 3.96 1.66 7.92 2 12 C1.34 12 0.68 12 0 12 C-0.66 15.63 -1.32 19.26 -2 23 C-4.36574234 19.4513865 -4.10865265 18.4235475 -3.625 14.3125 C-3.51414063 13.31863281 -3.40328125 12.32476562 -3.2890625 11.30078125 C-3.19367188 10.54152344 -3.09828125 9.78226563 -3 9 C-2.34 9 -1.68 9 -1 9 C-0.67 6.03 -0.34 3.06 0 0 Z " fill="#3B3E42" transform="translate(222,111)"/>
<path d="M0 0 C0.66 0.33 1.32 0.66 2 1 C-0.31883213 5.50884026 -3.06451569 7.93906776 -7 11 C-7.66 10.67 -8.32 10.34 -9 10 C-6.03 6.7 -3.06 3.4 0 0 Z M-11 11 C-10.34 11.33 -9.68 11.66 -9 12 C-11.54456151 14.96865509 -14.48994665 16.3619751 -18 18 C-16.66667905 14.00003714 -14.5042173 13.16217663 -11 11 Z " fill="#2C2F33" transform="translate(209,144)"/>
<path d="M0 0 C5.42465753 0.48219178 5.42465753 0.48219178 7.875 2.6875 C9.35172371 5.72298762 9.40963944 7.65461121 9 11 C7.75 13.8125 7.75 13.8125 6 16 C3.8125 16.8125 3.8125 16.8125 2 17 C2 16.34 2 15.68 2 15 C2.99 14.67 3.98 14.34 5 14 C6.58368102 10.83263796 6.42056706 8.4846985 6 5 C3.11490087 2.57577814 3.11490087 2.57577814 0 1 C0 0.67 0 0.34 0 0 Z " fill="#2F3034" transform="translate(117,95)"/>
<path d="M0 0 C1.32 0.99 2.64 1.98 4 3 C2.515 5.475 2.515 5.475 1 8 C-0.875 7.6875 -0.875 7.6875 -3 7 C-3.66 6.01 -4.32 5.02 -5 4 C-4.34 4 -3.68 4 -3 4 C-1.36323743 2.0399719 -1.36323743 2.0399719 0 0 Z " fill="#D94429" transform="translate(46,99)"/>
<path d="M0 0 C0.66 0.33 1.32 0.66 2 1 C1.37064741 3.93697877 0.67498244 6.48752634 -1 9 C-3.625 10.25 -3.625 10.25 -6 11 C-6 10.01 -6 9.02 -6 8 C-5.34 8 -4.68 8 -4 8 C-3.71125 6.865625 -3.4225 5.73125 -3.125 4.5625 C-2.75375 3.386875 -2.3825 2.21125 -2 1 C-1.34 0.67 -0.68 0.34 0 0 Z " fill="#3B3F42" transform="translate(212,142)"/>
<path d="M0 0 C0.53625 0.391875 1.0725 0.78375 1.625 1.1875 C1.295 1.8475 0.965 2.5075 0.625 3.1875 C-0.261875 3.125625 -1.14875 3.06375 -2.0625 3 C-5.71985017 3.20701982 -7.42277151 4.103574 -10.375 6.1875 C-12.025 5.1975 -13.675 4.2075 -15.375 3.1875 C-14.715 2.5275 -14.055 1.8675 -13.375 1.1875 C-13.375 1.8475 -13.375 2.5075 -13.375 3.1875 C-10.22377861 2.72408509 -8.13665212 2.05616545 -5.3125 0.5 C-2.375 -0.8125 -2.375 -0.8125 0 0 Z " fill="#2E3033" transform="translate(148.375,106.8125)"/>
<path d="M0 0 C0.66 0.33 1.32 0.66 2 1 C0 4 0 4 -2.375 4.9375 C-5.40935491 6.16569127 -6.92745715 7.48334083 -9 10 C-9.7872678 12.1381966 -9.7872678 12.1381966 -10 14 C-10.66 13.67 -11.32 13.34 -12 13 C-10.63924722 7.3868948 -6.37378806 4.38968575 -2 1 C-1.34 0.67 -0.68 0.34 0 0 Z " fill="#CB4231" transform="translate(49,89)"/>
<path d="M0 0 C0.33 0 0.66 0 1 0 C0.22095672 10.55808656 0.22095672 10.55808656 -2 15 C-2.66 15 -3.32 15 -4 15 C-4.33 15.66 -4.66 16.32 -5 17 C-4.31115236 13.37030282 -3.46387675 9.81634398 -2.5 6.25 C-2.11328125 4.80367188 -2.11328125 4.80367188 -1.71875 3.328125 C-1 1 -1 1 0 0 Z " fill="#303135" transform="translate(219,121)"/>
<path d="M0 0 C0.33 0.66 0.66 1.32 1 2 C-1.9826906 3.52448631 -4.818202 4.93940067 -8 6 C-8.66 5.67 -9.32 5.34 -10 5 C-10 4.34 -10 3.68 -10 3 C-6.58168085 0.4606772 -4.24223102 -0.3636198 0 0 Z " fill="#3C3F42" transform="translate(145,105)"/>
<path d="M0 0 C1.9375 0.3125 1.9375 0.3125 4 1 C4.33 1.99 4.66 2.98 5 4 C7.00016466 5.20882096 7.00016466 5.20882096 9 6 C9 6.99 9 7.98 9 9 C5.18063472 7.44396229 2.73955562 5.04395069 0 2 C0 1.34 0 0.68 0 0 Z " fill="#399859" transform="translate(39,126)"/>
<path d="M0 0 C1.32 0.66 2.64 1.32 4 2 C2.35 3.65 0.7 5.3 -1 7 C-1.99 6.01 -2.98 5.02 -4 4 C-3.67 3.01 -3.34 2.02 -3 1 C-2.67 1.99 -2.34 2.98 -2 4 C-1.34 2.68 -0.68 1.36 0 0 Z " fill="#E1BD25" transform="translate(39,117)"/>
<path d="M0 0 C0.33 0.66 0.66 1.32 1 2 C0.0355414 4.34824702 -0.96514123 6.68191636 -2 9 C-2 9.66 -2 10.32 -2 11 C-2.66 11 -3.32 11 -4 11 C-4.12375 11.804375 -4.2475 12.60875 -4.375 13.4375 C-4.58125 14.283125 -4.7875 15.12875 -5 16 C-5.66 16.33 -6.32 16.66 -7 17 C-5.34608232 10.77274933 -3.44240996 5.46037442 0 0 Z " fill="#2A2D30" transform="translate(9,81)"/>
<path d="M0 0 C0.66 0.66 1.32 1.32 2 2 C0.1875 4.5 0.1875 4.5 -2 7 C-2.99 7 -3.98 7 -5 7 C-5 5.68 -5 4.36 -5 3 C-2.5 1.25 -2.5 1.25 0 0 Z " fill="#34393C" transform="translate(154,127)"/>
<path d="M0 0 C-0.99 1.32 -1.98 2.64 -3 4 C-4.98 3.34 -6.96 2.68 -9 2 C-9 1.34 -9 0.68 -9 0 C-5.67465243 -1.10844919 -3.37817425 -0.84454356 0 0 Z " fill="#CC4037" transform="translate(74,97)"/>
<path d="M0 0 C0.66 0 1.32 0 2 0 C1.67 2.31 1.34 4.62 1 7 C-0.32 7.33 -1.64 7.66 -3 8 C-2.45276317 4.62537285 -1.9451 2.91765 0 0 Z " fill="#3C4043" transform="translate(171,139)"/>
<path d="M0 0 C0 0.99 0 1.98 0 3 C-0.66 3.66 -1.32 4.32 -2 5 C-2 5.99 -2 6.98 -2 8 C-3.32 8.33 -4.64 8.66 -6 9 C-6.33 8.01 -6.66 7.02 -7 6 C-4.69 4.02 -2.38 2.04 0 0 Z " fill="#51A13E" transform="translate(44,118)"/>
<path d="M0 0 C0.99 0 1.98 0 3 0 C3.84454356 3.37817425 4.10844919 5.67465243 3 9 C2.34 9 1.68 9 1 9 C0.45627049 5.94152152 0 3.11227195 0 0 Z " fill="#35373A" transform="translate(168,118)"/>
<path d="M0 0 C1.65 0.99 3.3 1.98 5 3 C2.16569547 6.2542015 0.31392226 7.5206753 -4 8 C-4 7.34 -4 6.68 -4 6 C-2.02 5.67 -0.04 5.34 2 5 C2 4.01 2 3.02 2 2 C1.34 2 0.68 2 0 2 C0 1.34 0 0.68 0 0 Z " fill="#309260" transform="translate(72,129)"/>
<path d="M0 0 C0.33 0.66 0.66 1.32 1 2 C-0.24176695 2.70226141 -1.49385599 3.38629109 -2.75 4.0625 C-3.79414062 4.63677734 -3.79414062 4.63677734 -4.859375 5.22265625 C-7.36140628 6.1312406 -8.5332355 5.88336837 -11 5 C-9.730447 4.35165346 -8.45930294 3.70642185 -7.1875 3.0625 C-6.47980469 2.70285156 -5.77210937 2.34320313 -5.04296875 1.97265625 C-3 1 -3 1 0 0 Z " fill="#2D2E30" transform="translate(42,55)"/>
<path d="M0 0 C2.86867231 1.38264837 5.56024032 2.92148553 8.25 4.625 C8.95640625 5.07101563 9.6628125 5.51703125 10.390625 5.9765625 C10.92171875 6.31429687 11.4528125 6.65203125 12 7 C11.01 7.33 10.02 7.66 9 8 C5.16249025 5.84140076 2.38760119 3.71404629 0 0 Z " fill="#262B2E" transform="translate(24,154)"/>
<path d="M0 0 C1.32 0.66 2.64 1.32 4 2 C3.67 3.32 3.34 4.64 3 6 C2.01 6 1.02 6 0 6 C-1.125 2.25 -1.125 2.25 0 0 Z " fill="#E73F2E" transform="translate(71,91)"/>
<path d="M0 0 C6.75 0.875 6.75 0.875 9 2 C9 2.66 9 3.32 9 4 C4.545 3.01 4.545 3.01 0 2 C0 1.34 0 0.68 0 0 Z " fill="#2E2F32" transform="translate(176,58)"/>
<path d="M0 0 C0 0.66 0 1.32 0 2 C0.66 2.33 1.32 2.66 2 3 C-1.3 3.33 -4.6 3.66 -8 4 C-3.375 0 -3.375 0 0 0 Z " fill="#37985A" transform="translate(66,135)"/>
<path d="M0 0 C0 2 0 4 0 6 C-1.98 6.99 -1.98 6.99 -4 8 C-3.40138258 5.64828869 -2.73075648 3.3140622 -2 1 C-1.34 0.67 -0.68 0.34 0 0 Z " fill="#35373B" transform="translate(13,77)"/>
<path d="M0 0 C0.99 0 1.98 0 3 0 C2.67 1.65 2.34 3.3 2 5 C1.01 5 0.02 5 -1 5 C-0.67 3.35 -0.34 1.7 0 0 Z " fill="#3E3F43" transform="translate(185,106)"/>
</svg>
