<?xml version="1.0" encoding="UTF-8"?>
<svg version="1.1" xmlns="http://www.w3.org/2000/svg" width="222" height="227">
<path d="M0 0 C3.51903781 0.37654169 6.14351062 0.4437842 9.6875 -0.0625 C13.0921705 -0.5488815 13.84667958 -0.04843756 16.75 1.5 C19.14388923 1.22197162 19.14388923 1.22197162 21.75 0.5 C26.4425924 -0.42175922 29.56660231 -1.0320565 33.75 1.5 C37.14021117 4.78113508 39.03054448 6.89047773 39.31762695 11.66943359 C39.31684388 13.2459899 39.28909645 14.82270014 39.23828125 16.3984375 C39.23120651 17.23339752 39.22413177 18.06835754 39.21684265 18.92861938 C39.18899925 21.57834973 39.12628406 24.22591559 39.0625 26.875 C39.03740393 28.67835475 39.01459305 30.48174285 38.99414062 32.28515625 C38.93920611 36.69092983 38.85300712 41.09509879 38.75 45.5 C37.12675914 45.72162329 35.501279 45.92689803 33.875 46.125 C32.97007812 46.24101562 32.06515625 46.35703125 31.1328125 46.4765625 C29.95332031 46.48816406 29.95332031 46.48816406 28.75 46.5 C26.75 44.5 26.75 44.5 26.52294922 41.33544922 C26.52326611 39.99182037 26.53457819 38.6481659 26.5546875 37.3046875 C26.5575174 36.59724396 26.56034729 35.88980042 26.56326294 35.16091919 C26.57446863 32.8987749 26.59957321 30.63702485 26.625 28.375 C26.63502933 26.84245363 26.64415526 25.30990106 26.65234375 23.77734375 C26.67440914 20.01807699 26.70894104 16.25910536 26.75 12.5 C25.43 12.5 24.11 12.5 22.75 12.5 C21.4912803 15.01743939 21.6867569 16.61922924 21.75 19.4375 C21.79921353 25.20251321 21.60205274 30.93155886 21.3125 36.6875 C21.27318359 37.53755615 21.23386719 38.3876123 21.19335938 39.26342773 C20.87044473 45.37955527 20.87044473 45.37955527 19.75 46.5 C17.75390625 46.66796875 17.75390625 46.66796875 15.3125 46.6875 C14.50941406 46.70167969 13.70632812 46.71585938 12.87890625 46.73046875 C10.75 46.5 10.75 46.5 8.75 44.5 C8.57511746 42.06255103 8.51822595 39.7406392 8.5546875 37.3046875 C8.5575174 36.59724396 8.56034729 35.88980042 8.56326294 35.16091919 C8.57446863 32.8987749 8.59957321 30.63702485 8.625 28.375 C8.63502933 26.84245363 8.64415526 25.30990106 8.65234375 23.77734375 C8.67440914 20.01807699 8.70894104 16.25910536 8.75 12.5 C7.1 12.5 5.45 12.5 3.75 12.5 C3.77356567 13.93835205 3.77356567 13.93835205 3.79760742 15.40576172 C3.8518392 18.95775986 3.88632497 22.50972131 3.91479492 26.06201172 C3.92989711 27.60048574 3.95038046 29.13891661 3.97631836 30.67724609 C4.01264074 32.88650141 4.02971119 35.09518848 4.04296875 37.3046875 C4.05845261 37.99432587 4.07393646 38.68396423 4.08988953 39.39450073 C4.09057617 41.33544922 4.09057617 41.33544922 3.75 44.5 C0.39672361 46.73551759 -0.15743657 46.67283528 -3.9375 46.125 C-4.74574219 46.01414063 -5.55398437 45.90328125 -6.38671875 45.7890625 C-7.00160156 45.69367188 -7.61648437 45.59828125 -8.25 45.5 C-9.63455296 30.39353822 -9.1435129 15.6099413 -8.25 0.5 C-4.99991212 -0.58336263 -3.35389616 -0.4122107 0 0 Z " fill="#19B8E9" transform="translate(158.25,94.5)"/>
<path d="M0 0 C0.75603516 -0.02900391 1.51207031 -0.05800781 2.29101562 -0.08789062 C7.6069638 -0.14782759 10.60015829 0.78147016 14.8125 4.3125 C17.25255612 9.19261223 16.12506031 16.67848446 16.16259766 22.10668945 C16.17918362 23.86724034 16.20650854 25.62772317 16.24462891 27.38793945 C16.29927749 29.92434653 16.32124861 32.45917807 16.3359375 34.99609375 C16.35860687 35.78366562 16.38127625 36.57123749 16.40463257 37.38267517 C16.39599609 39.60717773 16.39599609 39.60717773 15.8125 43.3125 C10.76435485 47.59209657 5.0814422 46.76783173 -1.1875 46.3125 C-5.25497175 45.83938535 -8.31391708 44.98448687 -11.625 42.4375 C-14.61869396 36.45011207 -14.83787272 29.34878521 -13.5625 22.8125 C-11.94075553 18.68442317 -11.14218302 17.33019542 -7.1875 15.3125 C-3.52459032 14.70889376 0.10468068 14.44237108 3.8125 14.3125 C3.8125 13.3225 3.8125 12.3325 3.8125 11.3125 C2.95785156 11.32410156 2.10320312 11.33570312 1.22265625 11.34765625 C0.11792969 11.35667969 -0.98679687 11.36570312 -2.125 11.375 C-3.22714844 11.38660156 -4.32929687 11.39820312 -5.46484375 11.41015625 C-8.1875 11.3125 -8.1875 11.3125 -9.1875 10.3125 C-9.2854057 8.81511876 -9.31724864 7.31307108 -9.3125 5.8125 C-9.31507812 4.9978125 -9.31765625 4.183125 -9.3203125 3.34375 C-9.00423288 -1.49040896 -3.75621922 0.04683565 0 0 Z M-1.1875 26.3125 C-1.1875 28.9525 -1.1875 31.5925 -1.1875 34.3125 C1.2875 34.8075 1.2875 34.8075 3.8125 35.3125 C3.8125 32.3425 3.8125 29.3725 3.8125 26.3125 C2.1625 26.3125 0.5125 26.3125 -1.1875 26.3125 Z " fill="#213266" transform="translate(70.1875,94.6875)"/>
<path d="M0 0 C3.63 0 7.26 0 11 0 C11.33 5.94 11.66 11.88 12 18 C13.65 18.33 15.3 18.66 17 19 C16.98839844 17.71222656 16.97679688 16.42445312 16.96484375 15.09765625 C16.9554673 13.41927228 16.94636695 11.74088674 16.9375 10.0625 C16.92912109 9.21236328 16.92074219 8.36222656 16.91210938 7.48632812 C16.90727539 6.27299805 16.90727539 6.27299805 16.90234375 5.03515625 C16.89448853 3.91185913 16.89448853 3.91185913 16.88647461 2.76586914 C17 1 17 1 18 0 C19.66429051 -0.09823937 21.33281931 -0.12973631 23 -0.125 C24.36125 -0.12886719 24.36125 -0.12886719 25.75 -0.1328125 C28 0 28 0 29 1 C29.12589826 3.68048832 29.18867004 6.33378393 29.203125 9.015625 C29.20882507 9.82360535 29.21452515 10.63158569 29.22039795 11.46405029 C29.22986449 13.17898239 29.23638847 14.89393281 29.24023438 16.60888672 C29.24990853 19.22526208 29.28090231 21.84084153 29.3125 24.45703125 C29.31903302 26.12239116 29.32428232 27.78775671 29.328125 29.453125 C29.3404718 30.23351135 29.3528186 31.01389771 29.36553955 31.81793213 C29.34688802 36.39932455 28.87607036 39.37897469 26 43 C19.48739513 47.29239866 11.52698148 46.48803371 4 46 C3 45 3 45 2.90234375 42.49609375 C2.93489583 39.6640625 2.96744792 36.83203125 3 34 C7.62 34 12.24 34 17 34 C17 33.01 17 32.02 17 31 C16.11248047 31.05220703 16.11248047 31.05220703 15.20703125 31.10546875 C10.27469367 31.27443953 6.9728774 31.27178139 3 28 C-1.37131384 23.78480451 -0.94640035 18.1253425 -1.08984375 12.4375 C-1.18272133 2.36544266 -1.18272133 2.36544266 0 0 Z " fill="#213367" transform="translate(90,95)"/>
<path d="M0 0 C0.99451172 -0.03738281 1.98902344 -0.07476562 3.01367188 -0.11328125 C11.28700608 -0.2123631 11.28700608 -0.2123631 14.95703125 2.7109375 C18.70778981 6.95308898 18.52354682 10.84524674 18.5625 16.25 C18.583125 16.95769531 18.60375 17.66539063 18.625 18.39453125 C18.65887548 22.94231412 18.158473 25.79830421 15.3125 29.375 C12.96992245 31.68253899 11.80929401 32.32296152 8.515625 32.66796875 C5.78125 32.5703125 3.046875 32.47265625 0.3125 32.375 C0.3125 36.665 0.3125 40.955 0.3125 45.375 C-1.91640995 46.48945498 -3.21805106 46.53980286 -5.6875 46.5625 C-6.38875 46.57667969 -7.09 46.59085938 -7.8125 46.60546875 C-9.6875 46.375 -9.6875 46.375 -11.6875 44.375 C-11.93473816 42.5087738 -11.93473816 42.5087738 -11.93041992 40.21655273 C-11.93349655 39.35903915 -11.93657318 38.50152557 -11.93974304 37.61802673 C-11.93255753 36.69091385 -11.92537201 35.76380096 -11.91796875 34.80859375 C-11.91751053 33.85936539 -11.91705231 32.91013702 -11.9165802 31.93214417 C-11.91355638 29.92390697 -11.90566624 27.91567216 -11.89331055 25.9074707 C-11.87505439 22.82169351 -11.87280082 19.73621617 -11.87304688 16.65039062 C-11.86813183 14.70312239 -11.86230357 12.7558562 -11.85546875 10.80859375 C-11.85435593 9.87945663 -11.8532431 8.95031952 -11.85209656 7.99302673 C-11.84571671 7.13866531 -11.83933685 6.28430389 -11.83276367 5.40405273 C-11.82895187 4.64841537 -11.82514008 3.89277802 -11.82121277 3.11424255 C-11.45079181 -1.7039352 -3.60829172 0.05046562 0 0 Z M0.3125 12.375 C0.3125 15.015 0.3125 17.655 0.3125 20.375 C2.2925 20.375 4.2725 20.375 6.3125 20.375 C6.3125 17.735 6.3125 15.095 6.3125 12.375 C4.3325 12.375 2.3525 12.375 0.3125 12.375 Z " fill="#203266" transform="translate(36.6875,94.625)"/>
<path d="M0 0 C1.8838487 0.51520167 1.8838487 0.51520167 3.65234375 -0.6640625 C6.09498463 -1.8213354 7.5092952 -1.9426428 10.1875 -1.75 C10.91710937 -1.72035156 11.64671875 -1.69070312 12.3984375 -1.66015625 C16.30193347 -0.08738846 18.61686497 2.77273475 20.8125 6.3125 C21.57454856 9.34544443 21.51964124 12.19677149 21.3984375 15.30859375 C21.38994781 16.14213882 21.38145813 16.9756839 21.37271118 17.83448792 C21.33935336 20.4743554 21.26411644 23.11106974 21.1875 25.75 C21.15737721 27.54878373 21.13000547 29.34761577 21.10546875 31.14648438 C21.03962108 35.53635519 20.93622993 39.92389469 20.8125 44.3125 C19.18925914 44.53412329 17.563779 44.73939803 15.9375 44.9375 C15.03257812 45.05351562 14.12765625 45.16953125 13.1953125 45.2890625 C12.01582031 45.30066406 12.01582031 45.30066406 10.8125 45.3125 C8.8125 43.3125 8.8125 43.3125 8.58544922 40.14794922 C8.58576611 38.80432037 8.59707819 37.4606659 8.6171875 36.1171875 C8.6200174 35.40974396 8.62284729 34.70230042 8.62576294 33.97341919 C8.63696863 31.7112749 8.66207321 29.44952485 8.6875 27.1875 C8.69752933 25.65495363 8.70665526 24.12240106 8.71484375 22.58984375 C8.73690914 18.83057699 8.77144104 15.07160536 8.8125 11.3125 C7.4925 11.3125 6.1725 11.3125 4.8125 11.3125 C3.5537803 13.82993939 3.7492569 15.43172924 3.8125 18.25 C3.86171353 24.01501321 3.66455274 29.74405886 3.375 35.5 C3.33568359 36.35005615 3.29636719 37.2001123 3.25585938 38.07592773 C2.93294473 44.19205527 2.93294473 44.19205527 1.8125 45.3125 C-0.18359375 45.48046875 -0.18359375 45.48046875 -2.625 45.5 C-3.42808594 45.51417969 -4.23117188 45.52835938 -5.05859375 45.54296875 C-7.1875 45.3125 -7.1875 45.3125 -9.1875 43.3125 C-9.36238254 40.87505103 -9.41927405 38.5531392 -9.3828125 36.1171875 C-9.3799826 35.40974396 -9.37715271 34.70230042 -9.37423706 33.97341919 C-9.36303137 31.7112749 -9.33792679 29.44952485 -9.3125 27.1875 C-9.30247067 25.65495363 -9.29334474 24.12240106 -9.28515625 22.58984375 C-9.26309086 18.83057699 -9.22855896 15.07160536 -9.1875 11.3125 C-10.8375 11.3125 -12.4875 11.3125 -14.1875 11.3125 C-14.1875 10.6525 -14.1875 9.9925 -14.1875 9.3125 C-11.8775 9.6425 -9.5675 9.9725 -7.1875 10.3125 C-7.1875 21.2025 -7.1875 32.0925 -7.1875 43.3125 C-4.5475 43.3125 -1.9075 43.3125 0.8125 43.3125 C0.83730062 38.98918037 0.85540758 34.66589894 0.86743164 30.3425293 C0.87244669 28.87312091 0.87926033 27.40371748 0.88793945 25.93432617 C0.90012928 23.81688205 0.90575669 21.69950417 0.91015625 19.58203125 C0.91539307 18.30948486 0.92062988 17.03693848 0.92602539 15.72583008 C0.82789606 12.7754081 0.50313835 10.17303325 -0.1875 7.3125 C-1.5075 7.3125 -2.8275 7.3125 -4.1875 7.3125 C-4.5175 6.3225 -4.8475 5.3325 -5.1875 4.3125 C-9.4328474 1.4822684 -13.34402548 1.87733331 -18.3515625 1.65625 C-19.28742188 1.5428125 -20.22328125 1.429375 -21.1875 1.3125 C-21.5175 0.6525 -21.8475 -0.0075 -22.1875 -0.6875 C-21.50042969 -0.67589844 -20.81335938 -0.66429688 -20.10546875 -0.65234375 C-18.75388672 -0.63880859 -18.75388672 -0.63880859 -17.375 -0.625 C-16.03501953 -0.60759766 -16.03501953 -0.60759766 -14.66796875 -0.58984375 C-3.30073155 -1.03737277 -3.30073155 -1.03737277 0 0 Z " fill="#34AFD4" transform="translate(176.1875,95.6875)"/>
<path d="M0 0 C0.99 0.33 1.98 0.66 3 1 C3.33 3.64 3.66 6.28 4 9 C4.804375 8.979375 5.60875 8.95875 6.4375 8.9375 C9 9 9 9 10 10 C10.09823996 11.47648876 10.12973519 12.95775417 10.125 14.4375 C10.12886719 15.64212891 10.12886719 15.64212891 10.1328125 16.87109375 C10 19 10 19 9 21 C7.35 21 5.7 21 4 21 C4.01047363 21.95890137 4.02094727 22.91780273 4.03173828 23.90576172 C4.06789328 27.45780719 4.09088393 31.00983634 4.10986328 34.56201172 C4.11993118 36.10045098 4.13358646 37.63887107 4.15087891 39.17724609 C4.17509317 41.38644133 4.18647491 43.59538395 4.1953125 45.8046875 C4.20563507 46.49432587 4.21595764 47.18396423 4.22659302 47.89450073 C4.22699478 49.59800906 4.12191026 51.30085943 4 53 C2 55 2 55 -0.1640625 55.1953125 C-0.97617188 55.17210937 -1.78828125 55.14890625 -2.625 55.125 C-3.44226563 55.10695312 -4.25953125 55.08890625 -5.1015625 55.0703125 C-5.72804687 55.04710937 -6.35453125 55.02390625 -7 55 C-10.99901871 44.36229409 -8.86314328 32.14379622 -8 21 C-9.98 21 -11.96 21 -14 21 C-14.19477739 19.37585622 -14.38059458 17.75063577 -14.5625 16.125 C-14.66691406 15.22007813 -14.77132812 14.31515625 -14.87890625 13.3828125 C-15 11 -15 11 -14 9 C-12.783125 8.5875 -11.56625 8.175 -10.3125 7.75 C-5.65996157 6.13209024 -3.24474328 3.65033619 0 0 Z " fill="#1EB5E4" transform="translate(137,86)"/>
<path d="M0 0 C2.1027832 1.49633789 2.1027832 1.49633789 4 4 C4.34890086 7.02905977 4.46754756 9.68303287 4.390625 12.703125 C4.38496521 13.54091492 4.37930542 14.37870483 4.37347412 15.24188232 C4.35112329 17.91184166 4.30093098 20.58044787 4.25 23.25 C4.22993325 25.06248059 4.21168278 26.87498226 4.1953125 28.6875 C4.15126294 33.12551959 4.08224566 37.56253056 4 42 C1.36 42 -1.28 42 -4 42 C-4 31.44 -4 20.88 -4 10 C-4.66 10 -5.32 10 -6 10 C-6 9.34 -6 8.68 -6 8 C-8.31 8.33 -10.62 8.66 -13 9 C-12.125 2.25 -12.125 2.25 -11 0 C-7.23797543 -1.25400819 -3.76155222 -1.19127853 0 0 Z " fill="#15BAEE" transform="translate(191,97)"/>
<path d="M0 0 C0 11.22 0 22.44 0 34 C-2.97 34 -5.94 34 -9 34 C-11.11126943 29.77746115 -11.2171997 27.85998477 -11.125 23.25 C-11.09792969 21.49429688 -11.09792969 21.49429688 -11.0703125 19.703125 C-11.04710938 18.81109375 -11.02390625 17.9190625 -11 17 C-10.34 17 -9.68 17 -9 17 C-8.95101562 16.01257813 -8.90203125 15.02515625 -8.8515625 14.0078125 C-8.77679688 12.72648437 -8.70203125 11.44515625 -8.625 10.125 C-8.55539063 8.84882812 -8.48578125 7.57265625 -8.4140625 6.2578125 C-8 3 -8 3 -6 1 C-1.9 0 -1.9 0 0 0 Z " fill="#16BAEC" transform="translate(139,105)"/>
<path d="M0 0 C3.63 0 7.26 0 11 0 C11.33 5.94 11.66 11.88 12 18 C13.65 18.33 15.3 18.66 17 19 C16.98839844 17.71222656 16.97679688 16.42445312 16.96484375 15.09765625 C16.9554673 13.41927228 16.94636695 11.74088674 16.9375 10.0625 C16.92912109 9.21236328 16.92074219 8.36222656 16.91210938 7.48632812 C16.90727539 6.27299805 16.90727539 6.27299805 16.90234375 5.03515625 C16.89448853 3.91185913 16.89448853 3.91185913 16.88647461 2.76586914 C17 1 17 1 18 0 C19.66429051 -0.09823937 21.33281931 -0.12973631 23 -0.125 C24.36125 -0.12886719 24.36125 -0.12886719 25.75 -0.1328125 C28 0 28 0 29 1 C29.13829622 3.68046678 29.21315186 6.33330698 29.23828125 9.015625 C29.25038887 10.22759552 29.25038887 10.22759552 29.26274109 11.46405029 C29.27659979 13.17897383 29.28731392 14.89392516 29.29516602 16.60888672 C29.31233902 19.22547264 29.35620223 21.84078206 29.40039062 24.45703125 C29.41052079 26.12238653 29.41903588 27.78775257 29.42578125 29.453125 C29.44328934 30.23351135 29.46079742 31.01389771 29.47883606 31.81793213 C29.45883835 36.85680376 28.57837766 39.43534617 25 43 C25 40 25 40 25.48022461 38.09545898 C26.03769838 35.84802011 26.2072139 33.7844142 26.31640625 31.47265625 C26.35838135 30.60342529 26.40035645 29.73419434 26.44360352 28.83862305 C26.48283936 27.92250244 26.5220752 27.00638184 26.5625 26.0625 C26.62618774 24.66028198 26.62618774 24.66028198 26.69116211 23.22973633 C26.99466484 16.14780229 27.11836266 9.08860805 27 2 C24.36 2 21.72 2 19 2 C19 7.61 19 13.22 19 19 C16.33333333 20.33333333 13.66666667 21.66666667 11 23 C11 22.34 11 21.68 11 21 C9.35 21.66 7.7 22.32 6 23 C6 20 6 20 8 18 C9.12823767 12.77391797 9.11327878 7.32410244 9 2 C6.36 2 3.72 2 1 2 C1.185625 2.86625 1.37125 3.7325 1.5625 4.625 C2.00667933 8.05152628 1.71954492 10.64212371 1 14 C0.34 14 -0.32 14 -1 14 C-1.02694851 12.04174127 -1.04637218 10.08337774 -1.0625 8.125 C-1.07410156 7.03445312 -1.08570312 5.94390625 -1.09765625 4.8203125 C-1 2 -1 2 0 0 Z " fill="#18274C" transform="translate(90,95)"/>
<path d="M0 0 C0.99451172 -0.03738281 1.98902344 -0.07476562 3.01367188 -0.11328125 C11.28673609 -0.21235986 11.28673609 -0.21235986 15.01953125 2.7734375 C17.3125 5.375 17.3125 5.375 17.3125 7.375 C16.6525 7.375 15.9925 7.375 15.3125 7.375 C13.9925 6.055 12.6725 4.735 11.3125 3.375 C4.7125 3.375 -1.8875 3.375 -8.6875 3.375 C-9.0175 16.905 -9.3475 30.435 -9.6875 44.375 C-7.2125 43.88 -7.2125 43.88 -4.6875 43.375 C-3.6975 43.705 -2.7075 44.035 -1.6875 44.375 C-1.6875 40.085 -1.6875 35.795 -1.6875 31.375 C1.9757333 29.54338335 6.30993796 29.56115246 10.34375 29.0703125 C13.6157037 28.6607977 13.6157037 28.6607977 15.3125 25.375 C15.9725 25.375 16.6325 25.375 17.3125 25.375 C15.90710773 28.77136466 14.46506178 30.47482577 11.3125 32.375 C7.60161458 32.76371006 4.05599839 32.50869637 0.3125 32.375 C0.3125 36.665 0.3125 40.955 0.3125 45.375 C-1.91640995 46.48945498 -3.21805106 46.53980286 -5.6875 46.5625 C-6.38875 46.57667969 -7.09 46.59085938 -7.8125 46.60546875 C-9.6875 46.375 -9.6875 46.375 -11.6875 44.375 C-11.93473816 42.5087738 -11.93473816 42.5087738 -11.93041992 40.21655273 C-11.93349655 39.35903915 -11.93657318 38.50152557 -11.93974304 37.61802673 C-11.93255753 36.69091385 -11.92537201 35.76380096 -11.91796875 34.80859375 C-11.91751053 33.85936539 -11.91705231 32.91013702 -11.9165802 31.93214417 C-11.91355638 29.92390697 -11.90566624 27.91567216 -11.89331055 25.9074707 C-11.87505439 22.82169351 -11.87280082 19.73621617 -11.87304688 16.65039062 C-11.86813183 14.70312239 -11.86230357 12.7558562 -11.85546875 10.80859375 C-11.85435593 9.87945663 -11.8532431 8.95031952 -11.85209656 7.99302673 C-11.84571671 7.13866531 -11.83933685 6.28430389 -11.83276367 5.40405273 C-11.82895187 4.64841537 -11.82514008 3.89277802 -11.82121277 3.11424255 C-11.45079181 -1.7039352 -3.60829172 0.05046562 0 0 Z " fill="#1A244B" transform="translate(36.6875,94.625)"/>
<path d="M0 0 C0.66 0.33 1.32 0.66 2 1 C2 2.32 2 3.64 2 5 C2.99 4.67 3.98 4.34 5 4 C5.22786458 6.05078125 5.45572917 8.1015625 5.68359375 10.15234375 C5.81886614 12.01140229 5.81886614 12.01140229 7 13 C8.34747084 13.23075082 9.70377565 13.41153063 11.0625 13.5625 C12.361875 13.706875 13.66125 13.85125 15 14 C15.33 13.01 15.66 12.02 16 11 C16.99 12.485 16.99 12.485 18 14 C16.35 15.65 14.7 17.3 13 19 C11.9275 18.690625 10.855 18.38125 9.75 18.0625 C7.80033694 17.51009547 5.84754212 16.96412756 3.875 16.5 C1.49465455 15.86524121 -0.72824133 14.94656611 -3 14 C-3.33 14.66 -3.66 15.32 -4 16 C-4 11.71 -4 7.42 -4 3 C-3.34 2.67 -2.68 2.34 -2 2 C-1.34 4.31 -0.68 6.62 0 9 C0 6.03 0 3.06 0 0 Z " fill="#223269" transform="translate(62,117)"/>
<path d="M0 0 C0.75603516 -0.02900391 1.51207031 -0.05800781 2.29101562 -0.08789062 C7.6069638 -0.14782759 10.60015829 0.78147016 14.8125 4.3125 C16.42551773 7.53853545 15.93303599 11.05960038 15.91015625 14.6015625 C15.9087413 15.41998627 15.90732635 16.23841003 15.90586853 17.08163452 C15.9002629 19.70029325 15.88770948 22.31886704 15.875 24.9375 C15.86998572 26.71093627 15.86542269 28.48437387 15.86132812 30.2578125 C15.85029164 34.60940782 15.83302325 38.9609395 15.8125 43.3125 C14.4925 43.9725 13.1725 44.6325 11.8125 45.3125 C11.8125 44.6525 11.8125 43.9925 11.8125 43.3125 C12.8025 42.8175 12.8025 42.8175 13.8125 42.3125 C13.86200115 37.54363513 13.89826738 32.77492041 13.92236328 28.00585938 C13.93241023 26.38408808 13.94605015 24.76233484 13.96337891 23.140625 C13.98768493 20.80724626 13.99899613 18.4741074 14.0078125 16.140625 C14.01813507 15.41756165 14.02845764 14.69449829 14.03909302 13.94952393 C14.03990928 10.27298348 14.02272762 7.34876285 11.8125 4.3125 C7.47809172 2.31490314 3.66428394 2.09103502 -1.0625 2.1875 C-2.21492188 2.20554687 -3.36734375 2.22359375 -4.5546875 2.2421875 C-5.42351562 2.26539062 -6.29234375 2.28859375 -7.1875 2.3125 C-7.1875 4.6225 -7.1875 6.9325 -7.1875 9.3125 C-6.28257813 9.27769531 -6.28257813 9.27769531 -5.359375 9.2421875 C-4.16054687 9.21511719 -4.16054687 9.21511719 -2.9375 9.1875 C-2.14859375 9.16429688 -1.3596875 9.14109375 -0.546875 9.1171875 C2.01981941 9.3296622 3.6041067 10.02595895 5.8125 11.3125 C5.4825 13.2925 5.1525 15.2725 4.8125 17.3125 C4.14863281 17.27769531 3.48476562 17.24289063 2.80078125 17.20703125 C-2.51776679 17.04398087 -5.73084537 17.10927948 -10.1875 20.3125 C-10.8475 19.9825 -11.5075 19.6525 -12.1875 19.3125 C-7.57497198 14.3818666 -2.55351332 14.5354777 3.8125 14.3125 C3.8125 13.3225 3.8125 12.3325 3.8125 11.3125 C2.95785156 11.32410156 2.10320312 11.33570312 1.22265625 11.34765625 C0.11792969 11.35667969 -0.98679687 11.36570312 -2.125 11.375 C-3.22714844 11.38660156 -4.32929687 11.39820312 -5.46484375 11.41015625 C-8.1875 11.3125 -8.1875 11.3125 -9.1875 10.3125 C-9.2854057 8.81511876 -9.31724864 7.31307108 -9.3125 5.8125 C-9.31507812 4.9978125 -9.31765625 4.183125 -9.3203125 3.34375 C-9.00423288 -1.49040896 -3.75621922 0.04683565 0 0 Z " fill="#1B264D" transform="translate(70.1875,94.6875)"/>
<path d="M0 0 C1.65 0.33 3.3 0.66 5 1 C5.0270043 2.45823212 5.04639787 3.91660675 5.0625 5.375 C5.07410156 6.18710938 5.08570313 6.99921875 5.09765625 7.8359375 C5 10 5 10 4 12 C2.35 12 0.7 12 -1 12 C-0.98952637 12.95890137 -0.97905273 13.91780273 -0.96826172 14.90576172 C-0.93210672 18.45780719 -0.90911607 22.00983634 -0.89013672 25.56201172 C-0.88006882 27.10045098 -0.86641354 28.63887107 -0.84912109 30.17724609 C-0.82490683 32.38644133 -0.81352509 34.59538395 -0.8046875 36.8046875 C-0.79436493 37.49432587 -0.78404236 38.18396423 -0.77340698 38.89450073 C-0.77300522 40.59800906 -0.87808974 42.30085943 -1 44 C-3 46 -3 46 -5.1640625 46.1953125 C-5.97617188 46.17210937 -6.78828125 46.14890625 -7.625 46.125 C-8.44226563 46.10695312 -9.25953125 46.08890625 -10.1015625 46.0703125 C-10.72804687 46.04710937 -11.35453125 46.02390625 -12 46 C-12.33 44.35 -12.66 42.7 -13 41 C-12.67 41.99 -12.34 42.98 -12 44 C-9.03 44 -6.06 44 -3 44 C-3 32.78 -3 21.56 -3 10 C-0.50907189 8.75453595 0.41080733 9.2232422 3 10 C3 7.36 3 4.72 3 2 C2.01 2 1.02 2 0 2 C0 1.34 0 0.68 0 0 Z " fill="#2DA7D0" transform="translate(142,95)"/>
<path d="M0 0 C3.63 0 7.26 0 11 0 C11.33 5.94 11.66 11.88 12 18 C14.31 18 16.62 18 19 18 C16.64722731 20.72426311 14.37503669 21.8141763 11 23 C11 22.34 11 21.68 11 21 C9.35 21.66 7.7 22.32 6 23 C6 20 6 20 8 18 C9.12823767 12.77391797 9.11327878 7.32410244 9 2 C6.36 2 3.72 2 1 2 C1.185625 2.86625 1.37125 3.7325 1.5625 4.625 C2.00667933 8.05152628 1.71954492 10.64212371 1 14 C0.34 14 -0.32 14 -1 14 C-1.02694851 12.04174127 -1.04637218 10.08337774 -1.0625 8.125 C-1.07410156 7.03445312 -1.08570312 5.94390625 -1.09765625 4.8203125 C-1 2 -1 2 0 0 Z " fill="#1E2E5B" transform="translate(90,95)"/>
<path d="M0 0 C0.74121094 0.05285156 1.48242188 0.10570313 2.24609375 0.16015625 C5.76683217 1.34165194 7.26079638 3.02857248 9.5625 5.9375 C10.23764875 8.95615387 10.14687449 11.87659138 10.05078125 14.95703125 C10.04370651 15.81560226 10.03663177 16.67417328 10.02934265 17.5587616 C10.00144402 20.29007603 9.93871691 23.01930958 9.875 25.75 C9.84991114 27.6060901 9.82709899 29.46221246 9.80664062 31.31835938 C9.75163253 35.85886972 9.66539364 40.39783257 9.5625 44.9375 C9.2325 44.9375 8.9025 44.9375 8.5625 44.9375 C8.54791748 43.80207764 8.53333496 42.66665527 8.51831055 41.49682617 C8.46036324 37.28654391 8.38313059 33.0767985 8.30004883 28.86694336 C8.2667826 27.04444081 8.23875594 25.22183481 8.21606445 23.39916992 C8.18254919 20.7799875 8.13023648 18.16175452 8.07421875 15.54296875 C8.06782883 14.72724899 8.0614389 13.91152924 8.05485535 13.0710907 C8.06039714 8.85777729 8.06039714 8.85777729 6.20417786 5.23017883 C3.84165595 3.36989787 1.84154904 3.42450288 -1.125 3.25 C-2.11886719 3.18425781 -3.11273438 3.11851563 -4.13671875 3.05078125 C-4.89597656 3.01339844 -5.65523437 2.97601563 -6.4375 2.9375 C-7.0975 4.5875 -7.7575 6.2375 -8.4375 7.9375 C-10.81756962 6.35078692 -12.58116088 5.05903042 -14.4375 2.9375 C-14.4375 2.2775 -14.4375 1.6175 -14.4375 0.9375 C-13.53 1.14375 -12.6225 1.35 -11.6875 1.5625 C-8.56561483 2.2261736 -8.56561483 2.2261736 -6.51171875 0.95703125 C-4.072394 -0.24195888 -2.68612301 -0.25604292 0 0 Z " fill="#24ADD5" transform="translate(186.4375,94.0625)"/>
<path d="M0 0 C0.99451172 -0.03738281 1.98902344 -0.07476562 3.01367188 -0.11328125 C11.28673609 -0.21235986 11.28673609 -0.21235986 15.01953125 2.7734375 C17.3125 5.375 17.3125 5.375 17.3125 7.375 C16.6525 7.375 15.9925 7.375 15.3125 7.375 C14.82265625 6.72015625 14.3328125 6.0653125 13.828125 5.390625 C9.89476218 2.23904858 5.94001577 2.94738738 1.0625 3.125 C-0.34128906 3.15207031 -0.34128906 3.15207031 -1.7734375 3.1796875 C-4.07856438 3.22673091 -6.38316354 3.29847222 -8.6875 3.375 C-9.0175 7.995 -9.3475 12.615 -9.6875 17.375 C-10.0175 17.375 -10.3475 17.375 -10.6875 17.375 C-11.80332647 12.07482429 -12.03318689 6.77381588 -11.6875 1.375 C-9.26684781 -1.04565219 -3.24515649 0.0453868 0 0 Z " fill="#252E54" transform="translate(36.6875,94.625)"/>
<path d="M0 0 C4.62 0 9.24 0 14 0 C14 0.33 14 0.66 14 1 C10.37 1.33 6.74 1.66 3 2 C2.67 4.31 2.34 6.62 2 9 C3.62490954 9.02698189 5.24994633 9.04638757 6.875 9.0625 C8.23238281 9.07990234 8.23238281 9.07990234 9.6171875 9.09765625 C12.0168585 9.16249257 12.0168585 9.16249257 14 8 C14 8.66 14 9.32 14 10 C17.465 9.505 17.465 9.505 21 9 C20 11 20 11 18.41796875 11.6171875 C15.04968916 12.15045309 11.71262693 12.14441081 8.3125 12.125 C7.62349609 12.12886719 6.93449219 12.13273438 6.22460938 12.13671875 C1.12669335 12.12669335 1.12669335 12.12669335 0 11 C-0.14310287 7.3308423 -0.04221662 3.67284559 0 0 Z " fill="#1F2852" transform="translate(93,129)"/>
<path d="M0 0 C0.66 0.33 1.32 0.66 2 1 C2 5.62 2 10.24 2 15 C3.65 15.33 5.3 15.66 7 16 C7.5534764 18.07553648 8 19.84365964 8 22 C8.66 22.66 9.32 23.32 10 24 C6.50462174 23.76167876 4.47160058 23.36963288 1.6875 21.1875 C-1.64889699 14.8854168 -1.71629513 6.86518053 0 0 Z " fill="#1D2953" transform="translate(57,116)"/>
<path d="M0 0 C0.33 0.66 0.66 1.32 1 2 C-1.31 2 -3.62 2 -6 2 C-6 4.64 -6 7.28 -6 10 C-4.02 10 -2.04 10 0 10 C0 7.69 0 5.38 0 3 C0.66 3.66 1.32 4.32 2 5 C1.625 8.625 1.625 8.625 1 12 C-5.15234375 12.09765625 -5.15234375 12.09765625 -7 12 C-8 11 -8 11 -8.09765625 8.71484375 C-8.08605469 7.79832031 -8.07445312 6.88179688 -8.0625 5.9375 C-8.05347656 5.01839844 -8.04445312 4.09929687 -8.03515625 3.15234375 C-8.02355469 2.44207031 -8.01195312 1.73179688 -8 1 C-5.29120665 -0.35439668 -2.99066732 -0.06501451 0 0 Z " fill="#1B264E" transform="translate(43,105)"/>
<path d="M0 0 C2.31 0 4.62 0 7 0 C8.83691257 3.78187881 9.15837626 5.94568308 8 10 C7.34 10 6.68 10 6 10 C6 7.36 6 4.72 6 2 C4.35 2 2.7 2 1 2 C1.103125 3.27875 1.20625 4.5575 1.3125 5.875 C1.37050781 6.59429687 1.42851563 7.31359375 1.48828125 8.0546875 C1.87393036 10.39519216 1.87393036 10.39519216 5 12 C3.35 11.67 1.7 11.34 0 11 C-1.05404945 7.01803543 -0.84098656 4.01804691 0 0 Z " fill="#19234E" transform="translate(68,119)"/>
<path d="M0 0 C2.64 0.33 5.28 0.66 8 1 C8 1.66 8 2.32 8 3 C12.455 3.99 12.455 3.99 17 5 C17.33 6.32 17.66 7.64 18 9 C17.34 9 16.68 9 16 9 C16 8.01 16 7.02 16 6 C15.11248047 6.05220703 15.11248047 6.05220703 14.20703125 6.10546875 C9.27876563 6.27430004 5.98345584 6.25919114 2 3 C1.34 2.01 0.68 1.02 0 0 Z " fill="#15204B" transform="translate(91,120)"/>
<path d="M0 0 C3.63 0 7.26 0 11 0 C11 0.33 11 0.66 11 1 C7.7 1.33 4.4 1.66 1 2 C1.185625 2.86625 1.37125 3.7325 1.5625 4.625 C2.00667933 8.05152628 1.71954492 10.64212371 1 14 C0.34 14 -0.32 14 -1 14 C-1.02694851 12.04174127 -1.04637218 10.08337774 -1.0625 8.125 C-1.07410156 7.03445312 -1.08570312 5.94390625 -1.09765625 4.8203125 C-1 2 -1 2 0 0 Z " fill="#1B2648" transform="translate(90,95)"/>
<path d="M0 0 C4.62 0 9.24 0 14 0 C14 0.33 14 0.66 14 1 C10.37 1.33 6.74 1.66 3 2 C2.06213918 7.05009595 2.06213918 7.05009595 3 12 C2.01 11.67 1.02 11.34 0 11 C0 7.37 0 3.74 0 0 Z " fill="#192547" transform="translate(93,129)"/>
<path d="M0 0 C2.475 0.495 2.475 0.495 5 1 C5.0270043 2.45823212 5.04639787 3.91660675 5.0625 5.375 C5.07410156 6.18710938 5.08570313 6.99921875 5.09765625 7.8359375 C5 10 5 10 4 12 C2.68 11.67 1.36 11.34 0 11 C0.99 11 1.98 11 3 11 C3 8.03 3 5.06 3 2 C2.01 2 1.02 2 0 2 C0 1.34 0 0.68 0 0 Z " fill="#34A9CA" transform="translate(142,95)"/>
<path d="M0 0 C0.99 0.33 1.98 0.66 3 1 C2.67 1.66 2.34 2.32 2 3 C1.34 3 0.68 3 0 3 C-0.2475 3.804375 -0.495 4.60875 -0.75 5.4375 C-2 8 -2 8 -3.9375 8.6875 C-4.618125 8.790625 -5.29875 8.89375 -6 9 C-6.99 9.66 -7.98 10.32 -9 11 C-7.59155282 7.78475695 -5.89655214 5.67816132 -3.375 3.25 C-2.74335938 2.63640625 -2.11171875 2.0228125 -1.4609375 1.390625 C-0.73777344 0.70226562 -0.73777344 0.70226562 0 0 Z " fill="#2AB1D8" transform="translate(137,86)"/>
<path d="M0 0 C0.33 0 0.66 0 1 0 C1.06058594 0.61488281 1.12117187 1.22976562 1.18359375 1.86328125 C1.26738281 2.67152344 1.35117188 3.47976562 1.4375 4.3125 C1.51871094 5.11300781 1.59992188 5.91351563 1.68359375 6.73828125 C1.95265693 9.16087179 1.95265693 9.16087179 3 12 C2.5625 14.1875 2.5625 14.1875 2 16 C1.34 16 0.68 16 0 16 C0 10.72 0 5.44 0 0 Z " fill="#25BDE2" transform="translate(177,109)"/>
<path d="M0 0 C2.93447681 -0.34934248 5.14367502 -0.51495218 7.734375 1.04296875 C9.375 2.375 9.375 2.375 12 5 C12 5.66 12 6.32 12 7 C11.34 7 10.68 7 10 7 C9.4225 6.38125 8.845 5.7625 8.25 5.125 C5.63886247 2.65892567 3.42988945 1.93542439 0 1 C0 0.67 0 0.34 0 0 Z " fill="#18224A" transform="translate(42,95)"/>
<path d="M0 0 C2.64 0.33 5.28 0.66 8 1 C8 1.66 8 2.32 8 3 C8.66 3.33 9.32 3.66 10 4 C6.83901159 5.0536628 5.99112741 5.21514551 3 4 C1.25 1.9375 1.25 1.9375 0 0 Z " fill="#1A2A51" transform="translate(91,120)"/>
<path d="M0 0 C1.64826111 2.96687001 2.44271087 5.65626525 3 9 C2.01 9 1.02 9 0 9 C-0.87890625 2.84765625 -0.87890625 2.84765625 -1 1 C-0.67 0.67 -0.34 0.34 0 0 Z " fill="#212B52" transform="translate(90,110)"/>
<path d="M0 0 C0.66 0 1.32 0 2 0 C2 2.64 2 5.28 2 8 C0.68 6.68 -0.64 5.36 -2 4 C-1.34 2.68 -0.68 1.36 0 0 Z " fill="#16B9F1" transform="translate(137,88)"/>
</svg>
