<?xml version="1.0" encoding="UTF-8"?>
<svg version="1.1" xmlns="http://www.w3.org/2000/svg" width="225" height="225">
<path d="M0 0 C22.20747633 18.60312153 35.09524456 43.34607931 37.8515625 72.15625 C39.97808969 98.99242413 31.20659337 125.44814784 14.078125 146.1328125 C-5.05448943 168.08604327 -30.06696747 181.50349657 -59.30859375 183.53125 C-86.98756296 184.85613722 -113.01726664 175.58071542 -133.87109375 157.40625 C-155.13529549 137.63952726 -167.35034722 112.8583539 -168.87109375 83.65625 C-169.44367655 56.73901563 -160.09047494 29.72105731 -141.38208008 10.15893555 C-139.89233763 8.64325172 -138.38629857 7.14643964 -136.87109375 5.65625 C-136.03578125 4.82222656 -135.20046875 3.98820312 -134.33984375 3.12890625 C-125.25101883 -5.50252651 -114.46474372 -11.69290629 -102.87109375 -16.34375 C-101.57751953 -16.88128906 -101.57751953 -16.88128906 -100.2578125 -17.4296875 C-66.61844512 -30.08608315 -27.54544286 -22.37362839 0 0 Z M-83.87109375 4.65625 C-83.87109375 8.87551778 -83.68933359 9.39413642 -81.30078125 12.53515625 C-80.74028076 13.28297363 -80.17978027 14.03079102 -79.60229492 14.80126953 C-78.98974854 15.59903809 -78.37720215 16.39680664 -77.74609375 17.21875 C-76.4684344 18.91512693 -75.19110065 20.61174913 -73.9140625 22.30859375 C-73.25067871 23.18370605 -72.58729492 24.05881836 -71.90380859 24.96044922 C-68.57939132 29.36931488 -65.32263359 33.82761298 -62.05859375 38.28125 C-60.88649065 39.87839289 -59.71340523 41.47481563 -58.5390625 43.0703125 C-58.04688232 43.7401416 -57.55470215 44.4099707 -57.04760742 45.10009766 C-55.95885587 46.61435606 -55.95885587 46.61435606 -54.87109375 47.65625 C-55.54538925 47.66655746 -56.21968475 47.67686493 -56.91441345 47.68748474 C-63.90552957 47.79530769 -70.89651042 47.90992443 -77.88745117 48.02856445 C-80.49972719 48.07199124 -83.11203303 48.11366038 -85.72436523 48.15356445 C-89.46998094 48.21108007 -93.21544544 48.27482764 -96.9609375 48.33984375 C-98.72497169 48.36491249 -98.72497169 48.36491249 -100.52464294 48.39048767 C-101.60568802 48.41043289 -102.68673309 48.43037811 -103.80053711 48.45092773 C-105.23616249 48.47424416 -105.23616249 48.47424416 -106.70079041 48.49803162 C-108.84972069 48.4169361 -108.84972069 48.4169361 -109.87109375 49.65625 C-109.97018677 51.98785055 -110.00079879 54.32254942 -109.99609375 56.65625 C-109.99867187 57.935 -110.00125 59.21375 -110.00390625 60.53125 C-110.22970268 63.52312244 -110.22970268 63.52312244 -108.87109375 64.65625 C-106.5179582 64.72896741 -104.16275707 64.73995868 -101.80859375 64.71875 C-100.51824219 64.70972656 -99.22789063 64.70070312 -97.8984375 64.69140625 C-96.39990234 64.67400391 -96.39990234 64.67400391 -94.87109375 64.65625 C-94.89204102 65.71948486 -94.91298828 66.78271973 -94.93457031 67.87817383 C-95.00768274 71.87201141 -95.05314875 75.86579149 -95.09082031 79.86010742 C-95.11077523 81.57961009 -95.13794933 83.29904633 -95.17285156 85.01831055 C-95.41157871 97.091585 -95.51812425 108.82722174 -86.6328125 118.16015625 C-79.48204966 124.23275529 -71.54640704 127.08492151 -62.24609375 126.40625 C-58.20674722 126.00349991 -54.70497611 124.96970357 -50.87109375 123.65625 C-50.87633057 124.43863037 -50.88156738 125.22101074 -50.88696289 126.02709961 C-50.90766481 129.54930833 -50.92073213 133.0715043 -50.93359375 136.59375 C-50.94616211 138.44129883 -50.94616211 138.44129883 -50.95898438 140.32617188 C-50.96220703 141.49599609 -50.96542969 142.66582031 -50.96875 143.87109375 C-50.97398682 144.95511475 -50.97922363 146.03913574 -50.98461914 147.15600586 C-51.15536272 149.59674948 -51.15536272 149.59674948 -49.87109375 150.65625 C-47.5179582 150.72896741 -45.16275707 150.73995868 -42.80859375 150.71875 C-41.51824219 150.70972656 -40.22789062 150.70070312 -38.8984375 150.69140625 C-37.89941406 150.67980469 -36.90039062 150.66820312 -35.87109375 150.65625 C-34.3122982 147.53865889 -34.74157242 144.23110514 -34.75756836 140.81005859 C-34.75742233 140.00022018 -34.75727631 139.19038177 -34.75712585 138.35600281 C-34.75782398 135.67220404 -34.76561171 132.98847419 -34.7734375 130.3046875 C-34.77530204 128.44666583 -34.77672577 126.58864367 -34.77772522 124.73062134 C-34.7815476 119.83482512 -34.79137552 114.93905845 -34.8024292 110.04327393 C-34.81264931 105.04968669 -34.81722413 100.05609468 -34.82226562 95.0625 C-34.83299802 85.26040366 -34.85007111 75.45832929 -34.87109375 65.65625 C-33.94425781 65.59566406 -33.01742187 65.53507812 -32.0625 65.47265625 C-30.86496094 65.38886719 -29.66742188 65.30507812 -28.43359375 65.21875 C-27.23863281 65.13753906 -26.04367188 65.05632812 -24.8125 64.97265625 C-21.98539131 64.97968886 -21.98539131 64.97968886 -20.87109375 63.65625 C-20.77200073 61.32464945 -20.74138871 58.98995058 -20.74609375 56.65625 C-20.74351562 55.3775 -20.7409375 54.09875 -20.73828125 52.78125 C-20.51248482 49.78937756 -20.51248482 49.78937756 -21.87109375 48.65625 C-23.4328212 48.56939397 -24.99838719 48.54922781 -26.5625 48.55859375 C-27.50673828 48.56181641 -28.45097656 48.56503906 -29.42382812 48.56835938 C-30.91366211 48.58092773 -30.91366211 48.58092773 -32.43359375 48.59375 C-33.43068359 48.59826172 -34.42777344 48.60277344 -35.45507812 48.60742188 C-37.92714224 48.61924993 -40.39908893 48.63573151 -42.87109375 48.65625 C-43.14493896 47.93421387 -43.41878418 47.21217773 -43.70092773 46.46826172 C-44.83872459 43.73403594 -46.1350028 41.23948203 -47.59375 38.6640625 C-48.12838867 37.71805176 -48.66302734 36.77204102 -49.21386719 35.79736328 C-49.78137695 34.8020459 -50.34888672 33.80672852 -50.93359375 32.78125 C-51.51270508 31.76144043 -52.09181641 30.74163086 -52.68847656 29.69091797 C-59.2948487 16.478638 -59.2948487 16.478638 -67.87109375 4.65625 C-70.56764229 4.58305379 -73.23800833 4.56382463 -75.93359375 4.59375 C-77.07151367 4.60051758 -77.07151367 4.60051758 -78.23242188 4.60742188 C-80.11201246 4.6192432 -81.99156274 4.63717922 -83.87109375 4.65625 Z " fill="#663AB6" transform="translate(177.87109375,32.34375)"/>
<path d="M0 0 C9.24 0 18.48 0 28 0 C28.09229208 4.69664148 28.17178017 9.39008515 28.21972656 14.08691406 C28.23973053 15.68142408 28.26694301 17.27586178 28.30175781 18.87011719 C28.65480403 35.46328951 28.65480403 35.46328951 24 42 C20.40458882 45.15548927 17.31602047 46.3301116 12.5 46.125 C7.56080148 45.31307696 4.17887695 42.8032992 1 39 C-0.25282725 35.24151826 -0.12381835 31.74509081 -0.09765625 27.83203125 C-0.0962413 27.03721848 -0.09482635 26.2424057 -0.09336853 25.42350769 C-0.08777378 22.88646675 -0.07522228 20.34951425 -0.0625 17.8125 C-0.05748432 16.09179815 -0.05292153 14.37109492 -0.04882812 12.65039062 C-0.03865722 8.43353231 -0.01908084 4.21686509 0 0 Z " fill="#653AB5" transform="translate(99,97)"/>
<path d="M0 0 C4.875 4.75 4.875 4.75 6 7 C-21.225 7.495 -21.225 7.495 -49 8 C-49 12.62 -49 17.24 -49 22 C-42.07 22.495 -42.07 22.495 -35 23 C-34.98598145 24.59485229 -34.98598145 24.59485229 -34.97167969 26.22192383 C-34.93141102 30.21630754 -34.86555582 34.20995048 -34.79248047 38.20385742 C-34.76448246 39.9231607 -34.74316408 41.64258763 -34.72900391 43.36206055 C-34.62591096 55.17994824 -33.41220387 64.32896841 -28 75 C-28.66 75 -29.32 75 -30 75 C-30.98669759 73.10807525 -31.9640602 71.21128022 -32.9375 69.3125 C-33.48277344 68.25675781 -34.02804688 67.20101562 -34.58984375 66.11328125 C-36.97010817 60.85823765 -37.1399445 55.99577639 -37.09765625 50.29296875 C-37.0962413 49.56757401 -37.09482635 48.84217926 -37.09336853 48.09480286 C-37.08779931 45.7923255 -37.07525261 43.48994765 -37.0625 41.1875 C-37.05748102 39.62044412 -37.05291881 38.0533867 -37.04882812 36.48632812 C-37.03783998 32.65751411 -37.02059673 28.82877389 -37 25 C-37.84304687 25.02320312 -38.68609375 25.04640625 -39.5546875 25.0703125 C-41.19824219 25.09738281 -41.19824219 25.09738281 -42.875 25.125 C-43.96554688 25.14820312 -45.05609375 25.17140625 -46.1796875 25.1953125 C-49 25 -49 25 -51 23 C-51.3601904 20.46704815 -51.60252732 18.04509307 -51.75 15.5 C-51.80542969 14.81035156 -51.86085938 14.12070313 -51.91796875 13.41015625 C-52.03375003 11.61028366 -52.02481773 9.80342195 -52 8 C-49.46024012 5.46024012 -48.52307 5.73221841 -44.99951172 5.68115234 C-43.95858368 5.66128265 -42.91765564 5.64141296 -41.84518433 5.62094116 C-40.71807037 5.60938995 -39.59095642 5.59783875 -38.4296875 5.5859375 C-37.27832306 5.56657135 -36.12695862 5.5472052 -34.94070435 5.5272522 C-31.25221231 5.46732628 -27.56368928 5.42101874 -23.875 5.375 C-21.37889241 5.33683223 -18.88279815 5.29778122 -16.38671875 5.2578125 C-10.25793063 5.16161412 -4.12906262 5.07660494 2 5 C1.34 3.35 0.68 1.7 0 0 Z " fill="#553591" transform="translate(118,74)"/>
<path d="M0 0 C17.14815106 15.0695873 22.5205618 40.67483856 24.1875 62.44921875 C24.51592406 73.22563328 22.51024858 84.07926846 19.5 94.375 C19.28641846 95.10654297 19.07283691 95.83808594 18.8527832 96.59179688 C17.26818984 101.73181016 17.26818984 101.73181016 15 104 C15.64418904 99.57791066 16.73817786 95.46934498 18 91.1875 C23.41991882 70.91271833 22.05110121 48.62474323 15 29 C14.47792969 27.52273437 14.47792969 27.52273437 13.9453125 26.015625 C11.13339847 18.68525601 7.25370383 12.40883113 2.890625 5.93359375 C1 3 1 3 0 0 Z " fill="#553596" transform="translate(192,48)"/>
<path d="M0 0 C0.59167969 0.40992188 1.18335937 0.81984375 1.79296875 1.2421875 C2.58316406 1.78101563 3.37335938 2.31984375 4.1875 2.875 C4.96480469 3.40867188 5.74210937 3.94234375 6.54296875 4.4921875 C16.40699823 10.54547109 25.76408542 8.87265243 37 7 C37.33 15.58 37.66 24.16 38 33 C44.93 33.495 44.93 33.495 52 34 C52.33 23.77 52.66 13.54 53 3 C53.33 3 53.66 3 54 3 C54.04938149 7.37823917 54.0857104 11.75633146 54.10986328 16.13476562 C54.11993043 17.6247032 54.13358518 19.11462097 54.15087891 20.60449219 C54.17509653 22.74419028 54.18647564 24.88362753 54.1953125 27.0234375 C54.21102295 28.95582275 54.21102295 28.95582275 54.22705078 30.92724609 C54 34 54 34 52 36 C48.84765625 36.30078125 48.84765625 36.30078125 45.0625 36.3125 C43.81597656 36.32925781 42.56945312 36.34601563 41.28515625 36.36328125 C38 36 38 36 36.31298828 34.82373047 C34.49167548 32.29394122 34.65788543 30.55321776 34.70703125 27.45703125 C34.7215332 25.84731445 34.7215332 25.84731445 34.73632812 24.20507812 C34.76146484 23.08552734 34.78660156 21.96597656 34.8125 20.8125 C34.83280273 19.11577148 34.83280273 19.11577148 34.85351562 17.38476562 C34.88890042 14.58936683 34.93827052 11.79492108 35 9 C33.96617188 9.32226562 32.93234375 9.64453125 31.8671875 9.9765625 C24.04526572 12.19847593 16.3217363 11.94520146 9.046875 8.21484375 C5.83666703 6.30954856 2.90881589 4.3518086 0 2 C0 1.34 0 0.68 0 0 Z " fill="#543593" transform="translate(90,149)"/>
<path d="M0 0 C9.24 0 18.48 0 28 0 C28 11.22 28 22.44 28 34 C27.01 34.495 27.01 34.495 26 35 C26 24.11 26 13.22 26 2 C17.75 2 9.5 2 1 2 C1.33 13.55 1.66 25.1 2 37 C1.34 36.67 0.68 36.34 0 36 C0 24.12 0 12.24 0 0 Z " fill="#52348E" transform="translate(99,97)"/>
<path d="M0 0 C1.83460434 2.48149445 3.32211668 5.11367363 4.8125 7.8125 C5.23901855 8.56281494 5.66553711 9.31312988 6.10498047 10.08618164 C6.98156879 11.62990942 7.85330813 13.17640057 8.72021484 14.72558594 C9.93495085 16.88439567 11.17401894 19.02655627 12.42578125 21.1640625 C18 30.72555528 18 30.72555528 18 33 C18.66 33 19.32 33 20 33 C20.67154933 34.28913487 21.33708859 35.58140204 22 36.875 C22.37125 37.59429687 22.7425 38.31359375 23.125 39.0546875 C24 41 24 41 24 43 C30.6 43 37.2 43 44 43 C44 43.33 44 43.66 44 44 C37.07 44 30.14 44 23 44 C19.81640625 38.40234375 19.81640625 38.40234375 18.73193359 36.49371338 C16.94077281 33.34475548 15.13939081 30.20225899 13.3203125 27.06933594 C6.99296556 16.15028831 6.99296556 16.15028831 4.49609375 10.80078125 C2.69727771 7.06582846 1.06455606 3.88288191 -2 1 C-7.28594285 -0.61191109 -12.64218036 0.1125084 -18 1 C-16.60240095 4.54518884 -16.60240095 4.54518884 -15 8 C-15.99 7.67 -16.98 7.34 -18 7 C-18 6.34 -18 5.68 -18 5 C-18.66 5 -19.32 5 -20 5 C-20.125 2.625 -20.125 2.625 -20 0 C-17.29495968 -2.70504032 -15.46122831 -2.49196815 -11.6875 -2.8125 C-10.55699219 -2.92207031 -9.42648438 -3.03164063 -8.26171875 -3.14453125 C-4.39918809 -2.9733772 -2.95721233 -2.4821192 0 0 Z " fill="#513190" transform="translate(112,37)"/>
<path d="M0 0 C0.99 0.33 1.98 0.66 3 1 C3.08076963 3.45898655 3.14037143 5.91533742 3.1875 8.375 C3.21263672 9.07367188 3.23777344 9.77234375 3.26367188 10.4921875 C3.29296875 12.5234375 3.29296875 12.5234375 3 16 C0 18 0 18 -12 18 C-12 30.54 -12 43.08 -12 56 C-12.33 56 -12.66 56 -13 56 C-13.16722049 50.46428137 -13.32781942 44.92842623 -13.48217773 39.39233398 C-13.5356766 37.50751524 -13.5910118 35.62274772 -13.64819336 33.73803711 C-13.7298851 31.03510589 -13.8050554 28.33206161 -13.87890625 25.62890625 C-13.90594131 24.78099014 -13.93297638 23.93307404 -13.96083069 23.0594635 C-14.01280526 21.04026894 -14.01188213 19.01982842 -14 17 C-11.44946069 14.44946069 -3.09014574 15.2100099 0 15 C0 10.05 0 5.1 0 0 Z " fill="#553792" transform="translate(156,81)"/>
<path d="M0 0 C5.1900243 -0.15638491 10.30091726 0.40709995 15.44921875 1 C16.52840576 1.11758667 16.52840576 1.11758667 17.62939453 1.23754883 C19.41331104 1.46037816 21.18396784 1.78455875 22.94921875 2.125 C23.44421875 3.115 23.44421875 3.115 23.94921875 4.125 C22.29307218 4.50718767 20.62464851 4.83895102 18.94921875 5.125 C18.45421875 4.63 18.45421875 4.63 17.94921875 4.125 C4.62940115 2.02266126 -8.88454368 2.30722646 -21.984375 5.46875 C-24.79067444 6.06933383 -27.19536356 6.2530935 -30.05078125 6.125 C-21.33376647 1.16531917 -9.85298235 0.60056273 0 0 Z " fill="#573799" transform="translate(110.05078125,8.875)"/>
<path d="M0 0 C0 3.65190721 -1.13887509 4.54820353 -3.60717773 7.07470703 C-4.12868408 7.58630371 -4.65019043 8.09790039 -5.1875 8.625 C-5.98812866 9.41753174 -5.98812866 9.41753174 -6.80493164 10.22607422 C-13.50050634 16.67539504 -21.17441865 22.84684571 -30 26 C-30 25.34 -30 24.68 -30 24 C-28.35 23.34 -26.7 22.68 -25 22 C-25.33 20.68 -25.66 19.36 -26 18 C-20.56316938 15.09192781 -20.56316938 15.09192781 -17.53515625 14.59765625 C-14.59016746 13.90338308 -13.330329 12.91561563 -11.125 10.875 C-10.10792969 9.94107422 -10.10792969 9.94107422 -9.0703125 8.98828125 C-5.99872878 6.03840179 -2.96933897 3.05285163 0 0 Z " fill="#5835A0" transform="translate(191,177)"/>
<path d="M0 0 C-14.18641602 4.955788 -26.98065241 7.33789419 -42 8 C-39.44725126 5.54394629 -38.14109357 5.01197061 -34.546875 4.70703125 C-33.29390625 4.74183594 -32.0409375 4.77664062 -30.75 4.8125 C-29.48671875 4.83957031 -28.2234375 4.86664063 -26.921875 4.89453125 C-25.47554687 4.94673828 -25.47554687 4.94673828 -24 5 C-24 4.34 -24 3.68 -24 3 C-22.9275 3.0825 -21.855 3.165 -20.75 3.25 C-15.68184362 3.2952514 -11.41640607 1.57859146 -6.734375 -0.22265625 C-3.9308223 -1.01966623 -2.6813288 -1.01507447 0 0 Z " fill="#543993" transform="translate(152,208)"/>
<path d="M0 0 C1.32 0.66 2.64 1.32 4 2 C2.40956621 7.08938811 -0.7446951 10.87456643 -4 15 C-5.125 11.25 -5.125 11.25 -4 9 C-3.67 8.67 -3.34 8.34 -3 8 C-3.04125 7.21625 -3.0825 6.4325 -3.125 5.625 C-3 3 -3 3 -1.5 1.1875 C-1.005 0.795625 -0.51 0.40375 0 0 Z " fill="#5B37A8" transform="translate(197,162)"/>
<path d="M0 0 C-0.33 0.99 -0.66 1.98 -1 3 C-2.8984375 3.88671875 -2.8984375 3.88671875 -5.375 4.6875 C-11.72413447 7.0271377 -16.70954162 10.85614287 -22 15 C-22.66 14.67 -23.32 14.34 -24 14 C-7.53191489 0 -7.53191489 0 0 0 Z " fill="#553691" transform="translate(72,18)"/>
<path d="M0 0 C1.53508028 2.43338652 2.03088304 3.67124507 1.7578125 6.578125 C1.44457031 7.90070313 1.44457031 7.90070313 1.125 9.25 C0.92132813 10.14203125 0.71765625 11.0340625 0.5078125 11.953125 C0.34023437 12.62859375 0.17265625 13.3040625 0 14 C-0.33 14 -0.66 14 -1 14 C-1.18451025 4.58997722 -1.18451025 4.58997722 0 0 Z " fill="#5C34A9" transform="translate(214,110)"/>
<path d="M0 0 C1.32 0.66 2.64 1.32 4 2 C4 2.99 4 3.98 4 5 C1.03 4.505 1.03 4.505 -2 4 C-1.34 2.68 -0.68 1.36 0 0 Z " fill="#5F36A8" transform="translate(114,70)"/>
<path d="M0 0 C1.32 0.66 2.64 1.32 4 2 C3 3 3 3 -0.16015625 3.09765625 C-2.09181641 3.08025391 -2.09181641 3.08025391 -4.0625 3.0625 C-5.35285156 3.05347656 -6.64320312 3.04445312 -7.97265625 3.03515625 C-8.97167969 3.02355469 -9.97070312 3.01195312 -11 3 C-11 2.67 -11 2.34 -11 2 C-7.37 2 -3.74 2 0 2 C0 1.34 0 0.68 0 0 Z " fill="#5B37A6" transform="translate(128,211)"/>
</svg>
